<svg id="e3bc2534-0ebd-4f63-9f3a-348582f08d5d" data-name="Layer 1" xmlns="http://www.w3.org/2000/svg" xmlns:xlink="http://www.w3.org/1999/xlink" viewBox="0 0 158.04 97.87"><defs><clipPath id="dd5178c2-c811-4e89-bad5-a7807bb2964c" transform="translate(0 -0.13)"><rect x="0.06" y="0.13" width="157.98" height="97.87" fill="none"/></clipPath></defs><title>athena-swan-bronze-award</title><g clip-path="url(#dd5178c2-c811-4e89-bad5-a7807bb2964c)"><path d="M48.52,70.83a21.35,21.35,0,1,1,0-42.69V1A48.52,48.52,0,1,0,97,49.48H69.87A21.35,21.35,0,0,1,48.52,70.83" transform="translate(0 -0.13)" fill="#aa6b2c"/></g><text transform="matrix(-0.85, 0.52, -0.52, -0.85, 29.65, 14.17)" font-size="11.64" fill="#fff" font-family="MyriadPro-Regular, Myriad Pro"> </text><text transform="translate(26.21 16.33) rotate(140.6)" font-size="11.64" fill="#fff" font-family="MyriadPro-Regular, Myriad Pro">E</text><text transform="matrix(-0.63, 0.77, -0.77, -0.63, 20.59, 21.09)" font-size="11.64" fill="#fff" font-family="MyriadPro-Regular, Myriad Pro">C</text><text transform="translate(15.27 27.75) rotate(116.69)" font-size="11.64" fill="#fff" font-family="MyriadPro-Regular, Myriad Pro">U</text><text transform="matrix(-0.29, 0.96, -0.96, -0.29, 11.43, 36.16)" font-size="11.64" fill="#fff" font-family="MyriadPro-Regular, Myriad Pro"> </text><text transform="matrix(-0.13, 0.99, -0.99, -0.13, 10.15, 40.26)" font-size="11.64" fill="#fff" font-family="MyriadPro-Regular, Myriad Pro">G</text><text transform="matrix(0.07, 1, -1, 0.07, 9.26, 49.25)" font-size="11.64" fill="#fff" font-family="MyriadPro-Regular, Myriad Pro">E</text><text transform="matrix(0.28, 0.96, -0.96, 0.28, 9.88, 56.68)" font-size="11.64" fill="#fff" font-family="MyriadPro-Regular, Myriad Pro">N</text><text transform="matrix(0.5, 0.87, -0.87, 0.5, 12.57, 65.62)" font-size="11.64" fill="#fff" font-family="MyriadPro-Regular, Myriad Pro">D</text><text transform="translate(17.51 73.54) rotate(48.5)" font-size="11.64" fill="#fff" font-family="MyriadPro-Regular, Myriad Pro">E</text><text transform="matrix(0.79, 0.61, -0.61, 0.79, 22.44, 78.97)" font-size="11.64" fill="#fff" font-family="MyriadPro-Regular, Myriad Pro">R</text><text transform="matrix(0.87, 0.49, -0.49, 0.87, 28.91, 83.62)" font-size="11.64" fill="#fff" font-family="MyriadPro-Regular, Myriad Pro"> </text><text transform="matrix(0.94, 0.34, -0.34, 0.94, 32.47, 85.67)" font-size="11.64" fill="#fff" font-family="MyriadPro-Regular, Myriad Pro">C</text><text transform="translate(40.51 88.51) rotate(7.29)" font-size="11.64" fill="#fff" font-family="MyriadPro-Regular, Myriad Pro">H</text><text transform="translate(48.95 89.47) rotate(-4.31)" font-size="11.64" fill="#fff" font-family="MyriadPro-Regular, Myriad Pro">A</text><text transform="translate(57.77 88.51) rotate(-16.43)" font-size="11.64" fill="#fff" font-family="MyriadPro-Regular, Myriad Pro">R</text><text transform="translate(65.55 86.02) rotate(-27.77)" font-size="11.64" fill="#fff" font-family="MyriadPro-Regular, Myriad Pro">T</text><text transform="translate(72.14 82.28) rotate(-38.55)" font-size="11.64" fill="#fff" font-family="MyriadPro-Regular, Myriad Pro">E</text><text transform="translate(77.87 77.63) rotate(-49.36)" font-size="11.64" fill="#fff" font-family="MyriadPro-Regular, Myriad Pro">R</text><path d="M111.73,9.86v2.71h2.53v2h-2.53v4.66c0,1.28.35,1.95,1.36,1.95a3.36,3.36,0,0,0,1-.13l0,2a5.74,5.74,0,0,1-1.93.28,3.09,3.09,0,0,1-2.3-.89,4.21,4.21,0,0,1-.82-2.94v-5h-1.52v-2h1.52V10.62l2.6-.76" transform="translate(0 -0.13)" fill="#003865"/><path d="M129.1,18.59c.07,1.91,1.56,2.73,3.25,2.73a7.93,7.93,0,0,0,2.92-.48l.39,1.84a9.91,9.91,0,0,1-3.68.67c-3.42,0-5.43-2.12-5.43-5.35,0-2.92,1.78-5.68,5.16-5.68s4.55,2.82,4.55,5.13a6.49,6.49,0,0,1-.09,1.13H129.1m4.63-1.86a2.27,2.27,0,0,0-2.19-2.58,2.61,2.61,0,0,0-2.45,2.58Z" transform="translate(0 -0.13)" fill="#003865"/><path d="M137.88,15.71c0-1.21,0-2.23-.09-3.14h2.34l.13,1.58h.07a3.81,3.81,0,0,1,3.36-1.82c1.84,0,3.75,1.19,3.75,4.53v6.26h-2.66v-6c0-1.51-.56-2.67-2-2.67a2.24,2.24,0,0,0-2.08,1.56,2.77,2.77,0,0,0-.11.87v6.19h-2.69V15.71" transform="translate(0 -0.13)" fill="#003865"/><path d="M157.83,20.58a16.94,16.94,0,0,0,.15,2.53h-2.4l-.17-1.17h-.06a3.92,3.92,0,0,1-3.12,1.41,3.13,3.13,0,0,1-3.31-3.14c0-2.66,2.36-4,6.26-4v-.17c0-.69-.28-1.84-2.14-1.84a5.59,5.59,0,0,0-2.84.78l-.52-1.73a7.59,7.59,0,0,1,3.81-.93c3.38,0,4.35,2.15,4.35,4.44v3.81M155.23,18c-1.88,0-3.68.37-3.68,2a1.4,1.4,0,0,0,1.52,1.51A2.16,2.16,0,0,0,155.14,20a1.85,1.85,0,0,0,.09-.58Z" transform="translate(0 -0.13)" fill="#003865"/><path d="M121.51,12.33a3.62,3.62,0,0,0-1.82.48A3.57,3.57,0,0,0,118.37,14h0V9h-2.68V23.11h2.68v-6.3a2.24,2.24,0,0,1,.11-.8,2.17,2.17,0,0,1,2.06-1.5c1.47,0,2,1.15,2,2.69v5.91h2.67V16.9c0-3.38-1.89-4.57-3.68-4.57" transform="translate(0 -0.13)" fill="#003865"/><path d="M103.16,9h-3.1L95.53,23.11h2.75L99.53,19h4l1.32,4.14h2.86L103.16,9M100,17l1.33-4.4h.47l1.35,4.4Z" transform="translate(0 -0.13)" fill="#003865"/><path d="M113.8,34.49a6.83,6.83,0,0,0,3,.73c1.22,0,1.87-.51,1.87-1.28s-.56-1.16-2-1.66c-2-.68-3.24-1.77-3.24-3.49,0-2,1.68-3.56,4.47-3.56a7.25,7.25,0,0,1,3,.6L120.3,28a5.61,5.61,0,0,0-2.47-.56c-1.16,0-1.72.53-1.72,1.14s.67,1.09,2.19,1.67c2.08.77,3.07,1.86,3.07,3.52,0,2-1.52,3.68-4.77,3.68a7.72,7.72,0,0,1-3.35-.74l.54-2.21" transform="translate(0 -0.13)" fill="#003865"/><path d="M124.64,37.24l-2.8-11.81h2.86l.89,4.85c.26,1.42.51,2.94.7,4.13h0c.2-1.28.48-2.7.77-4.15l1-4.83h2.84l.95,5c.26,1.38.45,2.65.63,4h0c.17-1.31.44-2.7.68-4.1l1-4.83h2.71l-3,11.81H131l-1-5.08c-.23-1.19-.42-2.3-.56-3.64h0c-.21,1.33-.4,2.45-.68,3.64l-1.12,5.08h-2.93" transform="translate(0 -0.13)" fill="#003865"/><path d="M140,34.21l-.84,3h-2.77L140,25.43h3.5l3.66,11.81h-2.87l-.91-3H140m3-2-.73-2.51c-.21-.7-.43-1.58-.6-2.28h0c-.18.7-.35,1.59-.54,2.28l-.7,2.51Z" transform="translate(0 -0.13)" fill="#003865"/><path d="M148.24,37.24V25.43h3.12l2.46,4.33a33.92,33.92,0,0,1,1.93,4h.05a44.23,44.23,0,0,1-.23-4.94V25.43H158V37.24h-2.8l-2.52-4.55a43.36,43.36,0,0,1-2-4.17l-.05,0c.07,1.56.1,3.22.1,5.15v3.56h-2.45" transform="translate(0 -0.13)" fill="#003865"/><path d="M106.15,41.12a9.08,9.08,0,0,1,1.58-.12,2.83,2.83,0,0,1,1.71.38,1.26,1.26,0,0,1,.62,1.12,1.39,1.39,0,0,1-1,1.29v0a1.5,1.5,0,0,1,1.2,1.48,1.54,1.54,0,0,1-.57,1.23,3.31,3.31,0,0,1-2.21.56,10.62,10.62,0,0,1-1.34-.08V41.12m1.08,2.35h.56c.75,0,1.18-.35,1.18-.86s-.42-.81-1.11-.81a3,3,0,0,0-.62,0Zm0,2.74a5,5,0,0,0,.58,0c.7,0,1.32-.26,1.32-1s-.6-1-1.35-1h-.54Z" transform="translate(0 -0.13)" fill="#a46b36"/><path d="M111.19,44.08c0-.58,0-1,0-1.39h.95l0,.82h0a1.28,1.28,0,0,1,1.18-.92,1.12,1.12,0,0,1,.26,0v1a1.48,1.48,0,0,0-.32,0,1,1,0,0,0-1,.82,1.93,1.93,0,0,0,0,.34V47h-1.09V44.08" transform="translate(0 -0.13)" fill="#a46b36"/><path d="M118.35,44.81a2.13,2.13,0,0,1-2.21,2.29A2.08,2.08,0,0,1,114,44.88a2.13,2.13,0,0,1,2.23-2.28,2.07,2.07,0,0,1,2.14,2.21m-3.24,0c0,.83.41,1.46,1.07,1.46s1.05-.61,1.05-1.48c0-.67-.3-1.44-1-1.44S115.1,44.13,115.1,44.85Z" transform="translate(0 -0.13)" fill="#a46b36"/><path d="M119.23,44c0-.5,0-.91,0-1.28h1l.05.65h0a1.55,1.55,0,0,1,1.37-.74c.75,0,1.53.49,1.53,1.85V47H122V44.57c0-.62-.23-1.09-.82-1.09a.91.91,0,0,0-.85.64,1.13,1.13,0,0,0,0,.35V47h-1.1V44" transform="translate(0 -0.13)" fill="#a46b36"/><path d="M123.87,46.37l1.62-2.07c.22-.27.41-.48.64-.73v0H124v-.87h3.42v.66l-1.58,2c-.21.26-.41.51-.64.73v0h2.27V47h-3.63v-.63" transform="translate(0 -0.13)" fill="#a46b36"/><path d="M129,45.15a1.17,1.17,0,0,0,1.33,1.11,3.24,3.24,0,0,0,1.19-.19l.16.75a4.05,4.05,0,0,1-1.5.26,2,2,0,0,1-2.22-2.18A2.13,2.13,0,0,1,130,42.6a1.87,1.87,0,0,1,1.85,2.1,2.56,2.56,0,0,1,0,.46H129m1.89-.76a.93.93,0,0,0-.89-1.05,1.06,1.06,0,0,0-1,1.05Z" transform="translate(0 -0.13)" fill="#a46b36"/><path d="M135.8,45.31,135.28,47h-1.12l1.91-6h1.39l1.94,6h-1.17l-.54-1.69H135.8m1.71-.82L137,43c-.11-.36-.21-.77-.3-1.11h0c-.09.34-.18.76-.28,1.11L136,44.49Z" transform="translate(0 -0.13)" fill="#a46b36"/><path d="M140.59,42.69l.45,2c.1.46.19.93.27,1.4h0c.09-.47.23-.95.35-1.39l.56-2h.88l.54,1.91c.13.5.25,1,.35,1.44h0c.07-.47.17-.94.28-1.44l.48-1.91h1.07L144.5,47h-1L143,45.25a13.61,13.61,0,0,1-.33-1.38h0a11.07,11.07,0,0,1-.33,1.38L141.76,47h-1l-1.27-4.31h1.11" transform="translate(0 -0.13)" fill="#a46b36"/><path d="M148.92,47l-.07-.48h0a1.59,1.59,0,0,1-1.27.58,1.28,1.28,0,0,1-1.35-1.28c0-1.09,1-1.64,2.55-1.63v-.07c0-.28-.11-.75-.88-.75a2.27,2.27,0,0,0-1.16.32L146.5,43a3.09,3.09,0,0,1,1.56-.38,1.61,1.61,0,0,1,1.78,1.81V46a7.08,7.08,0,0,0,.06,1h-1m-.14-2.1c-.77,0-1.5.15-1.5.81a.57.57,0,0,0,.62.62.88.88,0,0,0,.85-.59l0-.24Z" transform="translate(0 -0.13)" fill="#a46b36"/><g clip-path="url(#dd5178c2-c811-4e89-bad5-a7807bb2964c)"><path d="M151,44.08c0-.58,0-1,0-1.39h.95l0,.82h0a1.28,1.28,0,0,1,1.18-.92,1.14,1.14,0,0,1,.26,0v1a1.51,1.51,0,0,0-.32,0,1,1,0,0,0-1,.82,1.93,1.93,0,0,0,0,.34V47H151V44.08" transform="translate(0 -0.13)" fill="#a46b36"/><path d="M158,40.72v5.06c0,.44,0,.92,0,1.21h-1l0-.68h0a1.55,1.55,0,0,1-1.41.78,2,2,0,0,1-1.84-2.2,2,2,0,0,1,1.93-2.3,1.37,1.37,0,0,1,1.21.57h0V40.72H158m-1.09,3.77,0-.28a1,1,0,0,0-.94-.77c-.7,0-1.09.62-1.09,1.42s.39,1.36,1.08,1.36a1,1,0,0,0,.94-.77,1.22,1.22,0,0,0,0-.32Z" transform="translate(0 -0.13)" fill="#a46b36"/></g><path d="M68.18,14.06,81.52,8.76s2-1.12,5.46,4.89,5.86,9.42,5.86,9.42,2.78,3.84,5,3.06-13.68,5.43-13.68,5.43-2.41.64-5-4.5a62.68,62.68,0,0,0-5-8.57c-.9-1.27-3.34-5.25-6-4.44" transform="translate(0 -0.13)" fill="#cfab88"/><path d="M82.64,31.25h0m.09,0,0,0,0,0m1.15.29a2.67,2.67,0,0,1-1.12-.28,2.66,2.66,0,0,0,1.12.28h0" transform="translate(0 -0.13)" fill="#dbc0a3"/><path d="M83.87,31.58a2.66,2.66,0,0,1-1.12-.28h0l0,0-.06,0h0l.73-5a3,3,0,0,0,1.91-1.95l-1.32,7.33h-.05" transform="translate(0 -0.13)" fill="#c09060"/><path d="M84,21.5,82,35.71s0,2.28-7,2.3-11.1.37-11.1.37-4.72.49-5.12,2.79,2.12-14.56,2.12-14.56.66-2.41,6.39-2.09a62.14,62.14,0,0,0,9.91,0c1.55-.14,6.21-.28,6.83-3" transform="translate(0 -0.13)" fill="#bc8a59"/><path d="M71.77,24.68l-1.52,0h0l1.51,0" transform="translate(0 -0.13)" fill="#dbc0a3"/><g clip-path="url(#dd5178c2-c811-4e89-bad5-a7807bb2964c)"><path d="M71.57,31.31l-2.81-2.15a15.13,15.13,0,0,1,1.49-4.51l1.52,0h.16c-.81,1.8-2.11,5-.36,6.62" transform="translate(0 -0.13)" fill="#b47d46"/><path d="M69.61,31.9,58.19,23.19s-2-1.12,1.38-7.2,5.06-9.88,5.06-9.88,1.86-4.36.05-5.83S76.39,9.2,76.39,9.2s1.78,1.75-1.29,6.61a60.69,60.69,0,0,0-4.78,8.68c-.63,1.41-2.78,5.56-.72,7.42" transform="translate(0 -0.13)" fill="#aa6b2c"/></g><path d="M72.88,19.49h0c.28-.48.58-1,.91-1.54h0c-.33.55-.63,1.07-.91,1.55" transform="translate(0 -0.13)" fill="#e3cfba"/><path d="M73.79,17.94h0c.39-.65.83-1.36,1.32-2.13a15.23,15.23,0,0,0,1.16-2.17h0a15.47,15.47,0,0,1-1.16,2.17c-.49.77-.92,1.48-1.32,2.13" transform="translate(0 -0.13)" fill="#c89e75"/><path d="M72.88,19.49c-1-1.32-2.44-2.74-4-2.74a2.45,2.45,0,0,0-.72.11l8.09-3.21a15.23,15.23,0,0,1-1.16,2.17c-.49.77-.92,1.48-1.32,2.13s-.64,1.07-.91,1.54" transform="translate(0 -0.13)" fill="#b1773d"/><path d="M74.17,18.49a46.24,46.24,0,0,1,2.55,4c2.64-3.72,6.13-6.81,10.73-8.08l-.46-.8c-3.48-6-5.47-4.88-5.47-4.88l-13.34,5.3c2.66-.81,5.1,3.16,6,4.43" transform="translate(0 -0.13)" fill="#cfab88"/></svg>