<svg id="0a1e6761-ce65-48bf-a811-ad7a7b7caa91" data-name="Layer 1" xmlns="http://www.w3.org/2000/svg" xmlns:xlink="http://www.w3.org/1999/xlink" viewBox="0 0 491.75 108.98"><defs><linearGradient id="efd61fe3-b9ba-45a2-9355-ac8dfca02457" x1="50.52" y1="-42.28" x2="244.07" y2="151.26" gradientUnits="userSpaceOnUse"><stop offset="0" stop-color="#7c98ab"/><stop offset="0.44" stop-color="#cbd4dc"/><stop offset="0.45" stop-color="#c7d1d9"/><stop offset="0.53" stop-color="#abbcc8"/><stop offset="0.62" stop-color="#96acbb"/><stop offset="0.71" stop-color="#87a1b2"/><stop offset="0.83" stop-color="#7f9aad"/><stop offset="1" stop-color="#7c98ab"/></linearGradient></defs><title>tef-silver</title><rect width="294.59" height="108.98" rx="14.07" ry="14.07" fill="#fff"/><rect width="294.59" height="108.98" rx="14.07" ry="14.07" fill="url(#efd61fe3-b9ba-45a2-9355-ac8dfca02457)"/><rect x="10.4" y="10.24" width="131.12" height="88.51" rx="7.74" ry="7.74" fill="#fff"/><path d="M115.52,256.55H104.07v39.69a1.31,1.31,0,0,1-1.31,1.31H96.29A1.31,1.31,0,0,1,95,296.24V256.55H83.54a1.21,1.21,0,0,1-1.31-1.18v-5.17A1.26,1.26,0,0,1,83.54,249h32a1.26,1.26,0,0,1,1.31,1.24v5.17A1.21,1.21,0,0,1,115.52,256.55Z" transform="translate(-57.63 -220.67)" fill="#7c98ab"/><path d="M146.76,297.15a61.65,61.65,0,0,1-12.42.92c-8.5,0-15.1-2.29-15.1-13.4V261.85c0-11.11,6.6-13.4,15.1-13.4a61.62,61.62,0,0,1,12.42.92c1,.13,1.31.46,1.31,1.37v4.18a1.31,1.31,0,0,1-1.31,1.31H133.42c-3.79,0-5.16,1.31-5.16,5.62v7.06H146a1.31,1.31,0,0,1,1.31,1.31v4.71a1.31,1.31,0,0,1-1.31,1.31H128.26v8.43c0,4.31,1.37,5.62,5.16,5.62h13.34a1.31,1.31,0,0,1,1.31,1.31v4.18C148.07,296.69,147.74,297,146.76,297.15Z" transform="translate(-57.63 -220.67)" fill="#7c98ab"/><path d="M181.93,256.22H168.59c-3.79,0-5.16,1.31-5.16,5.62v7.06h17.72a1.31,1.31,0,0,1,1.31,1.31v4.71a1.31,1.31,0,0,1-1.31,1.31H163.43v20a1.31,1.31,0,0,1-1.31,1.31h-6.41a1.31,1.31,0,0,1-1.31-1.31V261.85c0-11.11,6.6-13.4,15.1-13.4a61.62,61.62,0,0,1,12.42.92c1,.13,1.31.46,1.31,1.37v4.18A1.31,1.31,0,0,1,181.93,256.22Z" transform="translate(-57.63 -220.67)" fill="#7c98ab"/><path d="M225.95,290.24a35.16,35.16,0,0,1-8.14-.83,1,1,0,0,1-.87-.92v-3.31a.87.87,0,0,1,.87-.87h.09c1.84.23,6.44.46,8.14.46,4.09,0,5.33-1.47,5.33-4.14,0-1.79-.87-2.71-3.91-4.51l-6.07-3.63c-4.28-2.53-5.43-5.19-5.43-8.41,0-5.06,2.94-8.73,11.49-8.73a51.37,51.37,0,0,1,8.83.83.93.93,0,0,1,.83.87v3.4a.79.79,0,0,1-.78.83h-.09c-3-.28-6.07-.46-9.06-.46-3.4,0-4.83,1.2-4.83,3.26,0,1.52.78,2.44,3.77,4.09l5.52,3.08c5.06,2.8,6.39,5.75,6.39,9.38C238,285.28,235.14,290.24,225.95,290.24Z" transform="translate(-57.63 -220.67)" fill="#fff"/><path d="M248.52,260.5h-4.46a1,1,0,0,1-1-.92v-4a1,1,0,0,1,1-.92h4.46a.92.92,0,0,1,.92.92v4A.92.92,0,0,1,248.52,260.5Zm-.14,29.38h-4.23a1,1,0,0,1-.92-1v-24a.92.92,0,0,1,.92-.92h4.23a.92.92,0,0,1,.92.92v24A1,1,0,0,1,248.38,289.87Z" transform="translate(-57.63 -220.67)" fill="#fff"/><path d="M260.84,289.87h-4.28a1,1,0,0,1-.92-1v-33.1a.92.92,0,0,1,.92-.92h4.28a.88.88,0,0,1,.87.92v33.1A.92.92,0,0,1,260.84,289.87Z" transform="translate(-57.63 -220.67)" fill="#fff"/><path d="M289.12,265l-5.79,20.92a6,6,0,0,1-11.45,0L266.08,265a.79.79,0,0,1,0-.32.73.73,0,0,1,.74-.74h4.6c.41,0,.78.32.92.92l4.41,19.26c.18.87.51,1.15.87,1.15s.69-.28.87-1.15l4.41-19.26a1.06,1.06,0,0,1,1-.92h4.6a.73.73,0,0,1,.74.74A.78.78,0,0,1,289.12,265Z" transform="translate(-57.63 -220.67)" fill="#fff"/><path d="M312.61,279h-15v.14c0,2.67,1.1,5.84,5.52,5.84,3.36,0,6.53-.28,8.46-.46h.14c.46,0,.83.23.83.69v3c0,.74-.14,1.06-1,1.2a40.89,40.89,0,0,1-8.92.78c-4.6,0-11.13-2.48-11.13-11.54v-3.4c0-7.17,4-11.68,11-11.68s10.94,4.83,10.94,11.68v2.57C313.53,278.61,313.25,279,312.61,279Zm-5.2-4.51c0-3.59-2-5.65-4.83-5.65s-4.92,2-4.92,5.65v.18h9.75Z" transform="translate(-57.63 -220.67)" fill="#fff"/><path d="M331.14,268.77a13,13,0,0,0-6.34,1.65v18.48a1,1,0,0,1-.92,1h-4.23a1,1,0,0,1-.92-1v-24a.92.92,0,0,1,.92-.92h4a.92.92,0,0,1,.92.92v1a10.7,10.7,0,0,1,6.57-2.21.92.92,0,0,1,.92.92v3.31A.92.92,0,0,1,331.14,268.77Z" transform="translate(-57.63 -220.67)" fill="#fff"/><path d="M384.3,226h-6v20.73a.69.69,0,0,1-.68.68h-3.38a.69.69,0,0,1-.68-.68V226h-6a.63.63,0,0,1-.68-.61v-2.7a.66.66,0,0,1,.68-.65h16.7a.66.66,0,0,1,.68.65v2.7A.63.63,0,0,1,384.3,226Z" transform="translate(-57.63 -220.67)" fill="#7c98ab"/><path d="M401.57,239.4H390.44v.1c0,2,.82,4.34,4.1,4.34,2.49,0,4.85-.21,6.28-.34h.1c.34,0,.61.17.61.51v2.25c0,.55-.1.79-.72.89a30.38,30.38,0,0,1-6.62.58c-3.42,0-8.26-1.84-8.26-8.57v-2.53c0-5.33,3-8.67,8.2-8.67s8.13,3.59,8.13,8.67v1.91C402.25,239.09,402,239.4,401.57,239.4Zm-3.86-3.35c0-2.66-1.47-4.2-3.59-4.2s-3.65,1.5-3.65,4.2v.14h7.24Z" transform="translate(-57.63 -220.67)" fill="#7c98ab"/><path d="M420.56,247.46h-2.9a.68.68,0,0,1-.68-.68v-.55a9.26,9.26,0,0,1-4.82,1.5c-2.83,0-5.91-1.09-5.91-5.7v-.14c0-3.89,2.39-5.91,8.33-5.91h2.15v-1.5c0-2.22-1-2.77-3-2.77a54,54,0,0,0-5.57.27H408c-.34,0-.61-.1-.61-.58v-2.19c0-.38.2-.61.65-.72a29.44,29.44,0,0,1,5.7-.55c4.85,0,7.51,2.15,7.51,6.52v12.29A.68.68,0,0,1,420.56,247.46ZM416.73,239h-2.15c-3.11,0-3.79,1-3.79,2.9V242c0,1.67.75,2.12,2.46,2.12a7.48,7.48,0,0,0,3.48-1Z" transform="translate(-57.63 -220.67)" fill="#7c98ab"/><path d="M438,247.29a18.7,18.7,0,0,1-4.41.44c-4.44,0-7.79-2.73-7.79-8.3v-3.18c0-5.57,3.35-8.3,7.79-8.3a18.71,18.71,0,0,1,4.41.44c.58.14.72.34.72.89v2.22c0,.34-.27.51-.62.51H438a29.4,29.4,0,0,0-4.41-.24c-1.6,0-3.28.92-3.28,4.47v3.18c0,3.55,1.67,4.47,3.28,4.47a29.34,29.34,0,0,0,4.41-.24h.1c.34,0,.62.17.62.51v2.22C438.76,246.95,438.62,247.15,438,247.29Z" transform="translate(-57.63 -220.67)" fill="#7c98ab"/><path d="M458.46,247.46h-3.14a.71.71,0,0,1-.68-.72V235.51c0-3-.51-3.72-2.8-3.72a8.87,8.87,0,0,0-4,1.16v13.8a.72.72,0,0,1-.68.72H444a.72.72,0,0,1-.68-.72V222.16a.68.68,0,0,1,.68-.68h3.14a.69.69,0,0,1,.68.68v7.07A9.16,9.16,0,0,1,453,228c4.71,0,6.11,3.35,6.11,7.55v11.23A.72.72,0,0,1,458.46,247.46Z" transform="translate(-57.63 -220.67)" fill="#7c98ab"/><path d="M468.46,225.64h-3.31a.72.72,0,0,1-.72-.68v-3a.72.72,0,0,1,.72-.68h3.31a.69.69,0,0,1,.68.68v3A.69.69,0,0,1,468.46,225.64Zm-.1,21.82h-3.14a.72.72,0,0,1-.68-.72V228.88a.69.69,0,0,1,.68-.68h3.14a.69.69,0,0,1,.68.68v17.86A.72.72,0,0,1,468.36,247.46Z" transform="translate(-57.63 -220.67)" fill="#7c98ab"/><path d="M489.53,247.46h-3.14a.71.71,0,0,1-.68-.72V235.61c0-3-.27-3.82-2.9-3.82a8.69,8.69,0,0,0-3.86,1.23v13.73a.72.72,0,0,1-.68.72h-3.14a.72.72,0,0,1-.68-.72V228.88a.69.69,0,0,1,.68-.68h3a.69.69,0,0,1,.68.68v.72A8.85,8.85,0,0,1,484.3,228c4.92,0,5.91,3.31,5.91,7.65v11.13A.72.72,0,0,1,489.53,247.46Z" transform="translate(-57.63 -220.67)" fill="#7c98ab"/><path d="M511.72,231.31l-1.13.44a4.34,4.34,0,0,1,.85,2.73v.24c0,4.27-2.94,6.22-8.09,6.22a10.28,10.28,0,0,1-3.72-.58,1.09,1.09,0,0,0-.58.89c0,.68.38,1,1.16,1.13l4,1c4.64,1.09,7.65,1.81,7.65,5.46V249c0,3.48-2.56,5.36-8.37,5.36-5.53,0-8.47-2.08-8.47-5.67v-.31a5.13,5.13,0,0,1,1.74-3.76,4,4,0,0,1-1.54-3.14v0a3.34,3.34,0,0,1,1.37-2.77,5.27,5.27,0,0,1-1.4-4v-.24c0-3.42,2.22-6.28,8.13-6.28h8a.92.92,0,0,1,.92.92v1.43C512.27,231.07,512.13,231.14,511.72,231.31Zm-4.34,17.48c0-.75-.44-1.2-4-2l-3-.72a3.37,3.37,0,0,0-.85,2.39v.31c0,1.4.85,2.25,4.06,2.25s3.86-.72,3.86-1.95ZM507,234.55c0-1.64-.72-2.9-3.65-2.9s-3.69,1.3-3.69,2.9v.27c0,1.26.51,2.7,3.69,2.7,2.83,0,3.65-1,3.65-2.7Z" transform="translate(-57.63 -220.67)" fill="#7c98ab"/><path d="M383,287.25a32.19,32.19,0,0,1-6.49.48c-4.44,0-7.89-1.2-7.89-7V268.81c0-5.81,3.45-7,7.89-7a32.2,32.2,0,0,1,6.49.48c.51.07.68.24.68.72v2.19a.69.69,0,0,1-.68.68h-7c-2,0-2.7.68-2.7,2.94v3.69h9.25a.68.68,0,0,1,.68.68v2.46a.68.68,0,0,1-.68.68h-9.25v4.41c0,2.25.72,2.94,2.7,2.94h7a.69.69,0,0,1,.68.68v2.19C383.68,287,383.51,287.19,383,287.25Z" transform="translate(-57.63 -220.67)" fill="#7c98ab"/><path d="M404.41,287.46h-3.89c-.37,0-.55-.1-.92-.68l-3.89-6-3.69,6c-.38.58-.55.68-.92.68h-3.52a.37.37,0,0,1-.41-.38.55.55,0,0,1,.1-.31l6.11-9.25-5.77-8.64a.49.49,0,0,1-.07-.21.53.53,0,0,1,.55-.48H392c.38,0,.55.17.89.68l3.45,5.33,3.21-5.33c.38-.61.55-.68.92-.68H404a.37.37,0,0,1,.41.38.55.55,0,0,1-.1.31l-5.63,8.61,6.21,9.29a.45.45,0,0,1-.44.68Z" transform="translate(-57.63 -220.67)" fill="#7c98ab"/><path d="M419.16,287.29a18.7,18.7,0,0,1-4.41.44c-4.44,0-7.79-2.73-7.79-8.3v-3.18c0-5.57,3.35-8.3,7.79-8.3a18.71,18.71,0,0,1,4.41.44c.58.14.72.34.72.89v2.22c0,.34-.27.51-.62.51h-.1a29.4,29.4,0,0,0-4.41-.24c-1.6,0-3.28.92-3.28,4.47v3.18c0,3.55,1.67,4.47,3.28,4.47a29.33,29.33,0,0,0,4.41-.24h.1c.34,0,.62.17.62.51v2.22C419.87,286.95,419.74,287.15,419.16,287.29Z" transform="translate(-57.63 -220.67)" fill="#7c98ab"/><path d="M439,279.4H427.89v.1c0,2,.82,4.34,4.1,4.34,2.49,0,4.85-.21,6.28-.34h.1c.34,0,.61.17.61.51v2.25c0,.55-.1.79-.72.89a30.35,30.35,0,0,1-6.62.58c-3.42,0-8.26-1.84-8.26-8.57v-2.53c0-5.33,3-8.67,8.2-8.67s8.13,3.59,8.13,8.67v1.91C439.71,279.09,439.5,279.4,439,279.4Zm-3.86-3.35c0-2.66-1.47-4.2-3.59-4.2s-3.65,1.5-3.65,4.2v.14h7.24Z" transform="translate(-57.63 -220.67)" fill="#7c98ab"/><path d="M448.45,287.46h-3.18a.72.72,0,0,1-.68-.72V262.16a.68.68,0,0,1,.68-.68h3.18a.66.66,0,0,1,.65.68v24.59A.69.69,0,0,1,448.45,287.46Z" transform="translate(-57.63 -220.67)" fill="#7c98ab"/><path d="M458.59,287.46h-3.18a.72.72,0,0,1-.68-.72V262.16a.68.68,0,0,1,.68-.68h3.18a.66.66,0,0,1,.65.68v24.59A.69.69,0,0,1,458.59,287.46Z" transform="translate(-57.63 -220.67)" fill="#7c98ab"/><path d="M479.76,279.4H468.63v.1c0,2,.82,4.34,4.1,4.34,2.49,0,4.85-.21,6.28-.34h.1c.34,0,.61.17.61.51v2.25c0,.55-.1.79-.72.89a30.35,30.35,0,0,1-6.62.58c-3.42,0-8.26-1.84-8.26-8.57v-2.53c0-5.33,3-8.67,8.2-8.67s8.13,3.59,8.13,8.67v1.91C480.44,279.09,480.24,279.4,479.76,279.4Zm-3.86-3.35c0-2.66-1.47-4.2-3.59-4.2s-3.65,1.5-3.65,4.2v.14h7.24Z" transform="translate(-57.63 -220.67)" fill="#7c98ab"/><path d="M500.25,287.46h-3.14a.71.71,0,0,1-.68-.72V275.61c0-3-.27-3.82-2.9-3.82a8.69,8.69,0,0,0-3.86,1.23v13.73a.72.72,0,0,1-.68.72h-3.14a.72.72,0,0,1-.68-.72V268.88a.69.69,0,0,1,.68-.68h3a.69.69,0,0,1,.68.68v.72A8.85,8.85,0,0,1,495,268c4.92,0,5.91,3.31,5.91,7.65v11.13A.72.72,0,0,1,500.25,287.46Z" transform="translate(-57.63 -220.67)" fill="#7c98ab"/><path d="M517.73,287.29a18.7,18.7,0,0,1-4.41.44c-4.44,0-7.79-2.73-7.79-8.3v-3.18c0-5.57,3.35-8.3,7.79-8.3a18.71,18.71,0,0,1,4.41.44c.58.14.72.34.72.89v2.22c0,.34-.27.51-.62.51h-.1a29.4,29.4,0,0,0-4.41-.24c-1.6,0-3.28.92-3.28,4.47v3.18c0,3.55,1.67,4.47,3.28,4.47a29.33,29.33,0,0,0,4.41-.24h.1c.34,0,.62.17.62.51v2.22C518.45,286.95,518.31,287.15,517.73,287.29Z" transform="translate(-57.63 -220.67)" fill="#7c98ab"/><path d="M537.6,279.4H526.46v.1c0,2,.82,4.34,4.1,4.34,2.49,0,4.85-.21,6.28-.34h.1c.34,0,.61.17.61.51v2.25c0,.55-.1.79-.72.89a30.35,30.35,0,0,1-6.62.58c-3.42,0-8.26-1.84-8.26-8.57v-2.53c0-5.33,3-8.67,8.2-8.67s8.13,3.59,8.13,8.67v1.91C538.28,279.09,538.08,279.4,537.6,279.4Zm-3.86-3.35c0-2.66-1.47-4.2-3.59-4.2s-3.65,1.5-3.65,4.2v.14h7.24Z" transform="translate(-57.63 -220.67)" fill="#7c98ab"/><path d="M383,305.88h-7c-2,0-2.7.68-2.7,2.94v3.69h9.25a.68.68,0,0,1,.68.68v2.46a.68.68,0,0,1-.68.68h-9.25v10.45a.68.68,0,0,1-.68.68H369.3a.68.68,0,0,1-.68-.68v-18c0-5.81,3.45-7,7.89-7a32.19,32.19,0,0,1,6.49.48c.51.07.68.24.68.72v2.19A.69.69,0,0,1,383,305.88Z" transform="translate(-57.63 -220.67)" fill="#7c98ab"/><path d="M398,311.79a9.67,9.67,0,0,0-4.71,1.23v13.73a.72.72,0,0,1-.68.72h-3.14a.72.72,0,0,1-.68-.72V308.88a.68.68,0,0,1,.68-.68h3a.68.68,0,0,1,.68.68v.72A8,8,0,0,1,398,308a.69.69,0,0,1,.68.68v2.46A.68.68,0,0,1,398,311.79Z" transform="translate(-57.63 -220.67)" fill="#7c98ab"/><path d="M415.23,327.46h-2.9a.69.69,0,0,1-.68-.68v-.55a9.26,9.26,0,0,1-4.82,1.5c-2.83,0-5.91-1.09-5.91-5.7v-.14c0-3.89,2.39-5.91,8.33-5.91h2.15v-1.5c0-2.22-1-2.77-3-2.77a53.87,53.87,0,0,0-5.57.27h-.17c-.34,0-.61-.1-.61-.58v-2.19c0-.38.2-.62.65-.72a29.53,29.53,0,0,1,5.7-.55c4.85,0,7.51,2.15,7.51,6.52v12.29A.69.69,0,0,1,415.23,327.46ZM411.4,319h-2.15c-3.11,0-3.79,1-3.79,2.9V322c0,1.67.75,2.12,2.46,2.12a7.48,7.48,0,0,0,3.48-1Z" transform="translate(-57.63 -220.67)" fill="#7c98ab"/><path d="M445,327.46h-3.14a.71.71,0,0,1-.68-.72V315.13c0-2.63-.55-3.31-2.46-3.31a7.46,7.46,0,0,0-3.18.85,18.7,18.7,0,0,1,.14,2.46v11.61a.72.72,0,0,1-.68.72h-3.14a.72.72,0,0,1-.68-.72V315.13c0-2.63-.44-3.31-2.36-3.31a7.58,7.58,0,0,0-3.14,1.13v13.8a.72.72,0,0,1-.68.72h-3.14a.72.72,0,0,1-.68-.72V308.88a.68.68,0,0,1,.68-.68h3a.68.68,0,0,1,.68.68v.72a8.54,8.54,0,0,1,4.88-1.64,4.84,4.84,0,0,1,4,1.54,10.67,10.67,0,0,1,5.63-1.54c4.64,0,5.67,3.18,5.67,7.17v11.61A.72.72,0,0,1,445,327.46Z" transform="translate(-57.63 -220.67)" fill="#7c98ab"/><path d="M466.07,319.4H454.94v.1c0,2,.82,4.34,4.1,4.34,2.49,0,4.85-.21,6.28-.34h.1c.34,0,.61.17.61.51v2.25c0,.55-.1.79-.72.89a30.35,30.35,0,0,1-6.62.58c-3.42,0-8.26-1.84-8.26-8.57v-2.53c0-5.33,3-8.67,8.2-8.67s8.13,3.59,8.13,8.67v1.91C466.75,319.09,466.55,319.4,466.07,319.4Zm-3.86-3.35c0-2.66-1.47-4.2-3.59-4.2s-3.65,1.5-3.65,4.2v.14h7.24Z" transform="translate(-57.63 -220.67)" fill="#7c98ab"/><path d="M496.32,309l-3.11,15.71c-.41,2-1,2.87-3,2.87h-.92A3,3,0,0,1,486,324.9l-2.7-10.45c0-.14,0-.17-.1-.17s-.07,0-.1.17l-2.7,10.45a3,3,0,0,1-3.24,2.66h-.92c-2.08,0-2.63-.82-3-2.87L470.1,309v-.1a.68.68,0,0,1,.68-.68h3.31a.66.66,0,0,1,.61.61l2.15,14.45c0,.31.1.48.17.48s.17-.14.24-.48l2.83-11.47c.34-1.33.75-1.47,1.91-1.47h2.39c1.16,0,1.57.14,1.91,1.47l2.83,11.47c.07.34.17.48.24.48s.14-.17.17-.48l2.15-14.45a.66.66,0,0,1,.62-.61h3.31a.68.68,0,0,1,.68.68Z" transform="translate(-57.63 -220.67)" fill="#7c98ab"/><path d="M507.35,327.73c-5.36,0-8.16-3.62-8.16-8.5v-2.77c0-4.88,2.8-8.5,8.16-8.5s8.16,3.62,8.16,8.5v2.77C515.51,324.11,512.71,327.73,507.35,327.73ZM511,316.46c0-2.8-1.26-4.61-3.65-4.61s-3.65,1.81-3.65,4.61v2.77c0,2.8,1.26,4.61,3.65,4.61S511,322,511,319.23Z" transform="translate(-57.63 -220.67)" fill="#7c98ab"/><path d="M529.44,311.79a9.67,9.67,0,0,0-4.71,1.23v13.73a.72.72,0,0,1-.68.72H520.9a.72.72,0,0,1-.68-.72V308.88a.68.68,0,0,1,.68-.68h3a.68.68,0,0,1,.68.68v.72a8,8,0,0,1,4.88-1.64.69.69,0,0,1,.68.68v2.46A.68.68,0,0,1,529.44,311.79Z" transform="translate(-57.63 -220.67)" fill="#7c98ab"/><path d="M548.9,327.46h-4.17a1.44,1.44,0,0,1-1-.68L538.38,319v7.75a.72.72,0,0,1-.68.72h-3.14a.72.72,0,0,1-.68-.72V302.16a.68.68,0,0,1,.68-.68h3.14a.68.68,0,0,1,.68.68V316.4l5.84-7.79a1,1,0,0,1,.79-.41h3.82c.34,0,.51.14.51.38a.55.55,0,0,1-.14.34l-6.86,8.43,6.93,9.43a.45.45,0,0,1,.1.27A.46.46,0,0,1,548.9,327.46Z" transform="translate(-57.63 -220.67)" fill="#7c98ab"/></svg>