<svg xmlns="http://www.w3.org/2000/svg" viewBox="0 0 243.1 248.1"><path d="M121.9 227.1c16.2 1.5 74.9 9.3 121.2 21v-74.2H0v74.3c46.4-11.8 105.6-19.6 121.9-21.1z" fill="#d51726"/><path d="M0 174.3c46.4 29.5 105.7 49 121.9 52.8 16.2-3.8 74.8-23.3 121.2-52.8v-.4H0v.4z" fill="#c71618"/><path d="M198.2 204.6c0-3.4-2-5.8-5.8-6.8l-2.8-.8c-1.9-.5-2.5-1.1-2.5-2.3 0-1.5 1.3-2.6 3.2-2.6 1.7 0 3.3.5 5.3 1.7l2.2-3.3c-2-1.4-4.8-2.3-7.6-2.3-4.8 0-8.2 2.9-8.2 7.1 0 1.3.3 2.5 1 3.5.8 1.4 2.2 2.3 4.5 2.9l2.5.7c2 .6 3 1.5 3 3 0 2-1.4 3.1-4 3.1-2.3 0-4.2-.7-6.3-1.8l-1.7 3.6c2.3 1.3 5.2 2.1 7.8 2.1 5.6-.1 9.4-3.2 9.4-7.8m-25-8.9c0 1-.3 1.8-.9 2.3-.6.6-1.5.8-3.5.8h-1.5v-6.2h1.6c1.1 0 2.1.1 2.6.3 1.1.4 1.7 1.4 1.7 2.8m6.2 16.1c-.8-1.4-4.3-7.4-5.5-8.9-.3-.4-.5-.6-1-1 2.8-.1 5.1-2.9 5.1-6.3 0-4-2.7-6.7-6.7-6.7h-8.5v22.9h4.5v-9.6c.3 0 .5.1.7.2.8.4 1.5 1.5 3.8 5.6.9 1.6 1.3 2.2 2.1 3.8h5.5zm-26.4-9.3h-4.5c.5-1.5.8-2.6 1.2-4.2.4-1.5 1-3.9 1.1-4.4l.9 4.1c.4 1.5 1.1 4 1.3 4.5m7.6 9.3l-7.2-23h-5l-7.5 23h4.8l1.6-5.4h6.7l1.6 5.4h5zm-21 0v-4h-8.7v-6.1h6.5V198h-6.5v-5.3h7.8l.6-3.8h-13v22.9h13.3zm-15.2-22.9H119l-3 6.3c-.5 1.1-1 2.2-1.2 2.9-.3-.9-.6-1.7-1.2-2.9l-2.9-6.3h-5.5l7.1 13.5v9.4h4.8v-9.4l7.3-13.5zm-28.1 15.8c0-4-2.8-6.4-7.1-6.4-.9 0-2.1.2-3.1.5l.6-7h8.6l.5-2.6h-11l-1.1 11.9c1.3-.5 2.7-.8 4.5-.8 3.1 0 4.6 1.7 4.6 4.7 0 4.5-3.2 6.4-6.8 6.4-1.6 0-2.7-.2-3.9-.5l.4 1.6c1.2.4 2.1.6 4.1.6 5-.1 9.7-2.9 9.7-8.4m-26.1-16c-2.7 0-4.9 1.1-6.6 2.8l.9 1.4c1.4-1.2 2.8-2 5.2-2 2.1 0 3.8 1.5 3.8 4.3 0 4-2.3 6.8-6.1 10.8l-4.3 4.4v1.6h14.5l.6-2.5H66.4l2.1-1.9c4.7-4.2 8.5-8.2 8.5-12.4 0-3.9-2.5-6.5-6.8-6.5m-16.4.4h-2l-6.6 4.2.5 1c1.5-.5 3.6-1.3 5-2v15.9c0 2.2-.8 2.4-4.7 2.4v1.3h12.6v-1.3c-3.9-.1-4.8-.3-4.8-2.4v-19.1z" fill="#fff"/><path fill="#f7f4f5" d="M0 0h242.8v173.8H0z"/><path d="M85.2 60.2h-.7c-.3-.5-.7-1.1-1.1-1.9-.5-.8-1.3-1.6-2.4-2.4-1.1-.7-2.5-1.4-4.3-2-1.8-.6-4-.9-6.8-.9-6.4 0-11.3 2-14.6 5.9-3.3 3.9-5 9.5-5 16.8 0 .6 0 1.6.1 2.7.1 1.2.2 2.5.5 3.9.3 1.5.7 3 1.4 4.6.7 1.6 1.5 3.1 2.7 4.7.7.9 1.4 1.8 2.3 2.6.9.8 1.9 1.6 3 2.2 1.1.6 2.4 1.2 3.8 1.6 1.4.4 3 .6 4.7.6 2.3 0 4.4-.3 6.2-.8 1.8-.5 3.4-1.2 4.8-2s2.6-1.7 3.7-2.8c1.1-1 2-2 2.9-3l.8.5-.8 7.5c-5.8 3.2-12.2 4.8-19.3 4.8-3.7 0-7.2-.6-10.5-1.7s-6.2-2.8-8.7-5c-2.5-2.2-4.4-4.9-5.9-8.2-1.5-3.3-2.2-7.1-2.2-11.3 0-3.8.6-7.4 1.8-10.7s3-6.2 5.5-8.7c2.4-2.5 5.5-4.4 9.3-5.9 3.7-1.5 8.2-2.2 13.2-2.2 3.2 0 6.1.3 9 .9 2.9.6 5.8 1.6 8.8 2.9l-2.2 7.3zM97.1 67c0-2.4 0-5-.1-7.8s-.3-6-.7-9.7c.7.1 1.7.2 2.8.3 1.2.1 2 .2 2.6.2.9 0 1.8-.1 2.7-.2.9-.1 1.8-.2 2.8-.3-.2 1.4-.4 3.2-.5 5.4-.1 2.2-.2 4.5-.3 7-.1 2.5-.1 4.9-.1 7.4v6.6c0 5.7.1 10.6.2 14.8.1 4.2.3 7.8.6 10.9-.9-.1-1.8-.1-2.7-.3-.9-.1-1.8-.2-2.7-.2-.9 0-1.8.1-2.8.2-1 .1-1.9.2-2.8.3.4-4.6.7-9.8.7-15.8.3-5.9.3-12.2.3-18.8zm40.3 24.2c0 2.9.1 5.1.2 6.6s.2 2.8.4 3.8l-3.3-.3c-1.1-.1-1.8-.2-2.3-.2-.7 0-1.3 0-2 .1s-1.8.2-3.1.4c.2-2.9.3-5.8.5-8.7.2-2.9.3-5.8.3-8.7L128 63v-4.2c0-1.4-.1-2.8-.1-4.2h-5.5c-.9 0-2 .1-3.2.1-1.2 0-2.4.1-3.7.2-1.3.1-2.4.2-3.4.3.3-1 .4-1.9.4-2.8 0-.9-.1-1.8-.4-2.8 1.5.1 3.2.2 4.9.2 1.8.1 3.5.1 5.3.2 1.8.1 3.6.1 5.3.1h4.8c3.2 0 6.5 0 9.9-.1 3.4-.1 6.9-.2 10.5-.4-.3 1.4-.4 2.4-.4 2.9 0 .4 0 .8.1 1.2.1.4.2.9.3 1.5-2.3-.3-4.7-.4-7.3-.5-2.6-.1-5.2-.1-7.9-.1-.1 1.4-.1 2.7-.1 4.2v4.3l-.1 28.1zm47.4-7.1v4.4c0 1.3.1 2.7.1 4.1.1 1.4.1 2.8.2 4.2.1 1.5.1 3 .2 4.8l-2.7-.3c-.9-.1-1.8-.2-2.7-.2-.8 0-1.7.1-2.6.2-1 .1-1.8.2-2.5.3.1-1.5.1-3.1.2-5s.1-3.8.2-5.7c.1-1.9.1-3.7.1-5.5V81l-4.5-7.7c-1-1.7-2.1-3.6-3.3-5.6-1.2-2.1-2.5-4.2-3.8-6.3l-3.9-6.3c-1.3-2-2.4-3.9-3.4-5.6 1.4.2 2.6.3 3.5.4.9.1 1.9.1 2.7.1.9 0 1.9 0 3-.1s2.2-.2 3.3-.4c1 2.1 1.9 4 2.8 5.9.9 1.9 1.9 3.8 2.9 5.8s2.1 4.1 3.4 6.3c1.2 2.3 2.7 4.8 4.3 7.6 1.6-2.8 3-5.1 4.1-7 1.1-1.9 2-3.7 2.9-5.5s1.8-3.6 2.8-5.7c.9-2 2.1-4.5 3.5-7.5.6.1 1.3.2 2 .3.7.1 1.5.2 2.4.2.7 0 1.4 0 1.9-.1s.9-.2 1.3-.4c-.3.5-.8 1.4-1.6 2.6-.7 1.2-1.5 2.5-2.4 3.8-.8 1.3-1.6 2.6-2.4 3.8-.7 1.2-1.3 2-1.6 2.5-1.7 2.7-3.4 5.5-4.9 8.3s-3.1 5.6-4.7 8.3c-.3.5-.5.9-.7 1.3-.2.4-.3.8-.3 1.1l.2 3zm-138 26.8c0-.7 0-1.2-.1-1.5h.6c.1 0 .3 0 .4-.1 0 .3-.1.7-.1 1.2s-.1.9-.1 1.5c0 .5 0 1-.1 1.6v1.6c0 .6-.1 1.2-.3 1.7-.2.5-.5.9-.8 1.3s-.7.6-1.2.8c-.5.2-1 .3-1.7.3-1.4 0-2.4-.3-3.1-.9-.6-.6-.9-1.6-.9-3v-4.3c0-.6 0-1.1-.1-1.5h1.4c0 .2 0 .5-.1.8 0 .3 0 .7-.1 1.1v3.9c0 .3 0 .7.1 1l.3.9c.1.3.3.5.6.8.2.2.5.4.9.5s.8.2 1.3.2.9-.1 1.3-.2.7-.4.8-.6c.2-.2.4-.5.5-.8.1-.3.2-.6.3-1 .1-.4.1-.7.1-1v-.9c.1-1.6.1-2.7.1-3.4zm8 4.5c-1.2-1.3-2.4-2.6-3.6-3.8v7.4h-1c0-.1 0-.3.1-.5 0-.3 0-.5.1-.9 0-.4 0-.7.1-1.1 0-.4 0-.8.1-1.2v-5.9h.2c.6.6 1.2 1.3 1.8 2 .7.7 1.3 1.4 1.9 2.1.7.7 1.2 1.3 1.8 1.9s1.1 1.1 1.5 1.6v-4.7c0-.9 0-1.8-.1-2.6.2 0 .4.1.5.1.1 0 .3 0 .5-.1 0 .2 0 .5-.1.9 0 .4 0 .8-.1 1.3 0 .5 0 .9-.1 1.4v6.2h-.2c-1-1.6-2.2-2.8-3.4-4.1zm6.4-4.2c0-.6-.1-1.2-.1-1.8h1.4c0 .6-.1 1.2-.1 1.8v6c0 .6.1 1.2.1 1.7h-1.4c0-.6.1-1.2.1-1.7V113c.1-.6 0-1.2 0-1.8zm5.9 5.8c-.3-.8-.7-1.6-1-2.4-.4-.8-.7-1.7-1.1-2.6-.4-.9-.7-1.7-1-2.5h1.6c.2.6.4 1.3.7 1.9.3.7.5 1.4.8 2 .3.7.6 1.4.8 2.1l.9 2.1c.2-.4.4-.8.6-1.3.2-.5.4-.9.6-1.5.2-.5.4-1 .6-1.6l.6-1.5c.2-.5.4-.9.5-1.4.2-.4.3-.8.4-1.1.2 0 .4.1.5.1.1 0 .3 0 .5-.1L71 114c-.7 1.6-1.3 3.2-1.9 4.8h-1c-.4-.4-.7-1-1-1.8zm7.3-5.8c0-.6-.1-1.2-.1-1.8h4.8v.8c-.3 0-.6 0-.8-.1-.3 0-.5 0-.8-.1-.3 0-.6 0-.9-.1h-1.2v3.6h3.4v.8c-.2 0-.5-.1-.8-.1h-2.6v4.1h2c.3 0 .7 0 1-.1.3 0 .6-.1.8-.1v.8h-5.1c0-.6.1-1.2.1-1.8V113c.2-.6.2-1.2.2-1.8zm7 0c0-.6-.1-1.2-.1-1.8h3.2c.4 0 .7 0 1.1.1.4.1.7.2.9.4.3.2.5.4.6.7.2.3.2.6.2 1 0 .5-.1.8-.3 1.1-.2.3-.5.6-.7.8s-.6.4-.9.5c-.3.1-.6.2-.9.2.1.1.3.3.5.6s.4.5.7.8c.2.3.5.6.7.9.3.3.5.6.7.9s.5.6.7.8c.2.3.4.5.5.6h-1.6c-.1-.2-.4-.5-.7-.9s-.6-.8-.9-1.3c-.4-.5-.7-.9-1-1.3-.4-.5-.7-.8-1-1.1h-.5v2.8c0 .6.1 1.2.1 1.7h-1.4c0-.6.1-1.2.1-1.7v-5.8zm1.6 2.7h.5c.3 0 .6 0 .9-.1.3-.1.6-.2.8-.4.3-.2.5-.4.7-.6s.3-.6.3-1-.1-.6-.2-.9c-.1-.2-.3-.4-.5-.5-.2-.1-.5-.2-.7-.3-.3-.1-.5-.1-.7-.1h-.8c-.2 0-.4 0-.6.1 0 .5 0 1-.1 1.5v2.3h.4zm7 3.8c.1.2.3.3.5.5.2.1.4.3.7.4.2.1.5.1.8.1s.6-.1.8-.2c.3-.1.5-.3.6-.4.2-.2.3-.4.4-.6.1-.3.1-.5.1-.8 0-.4-.1-.8-.3-1-.2-.3-.5-.5-.8-.6-.3-.2-.7-.3-1-.5-.4-.1-.7-.3-1-.5-.3-.2-.6-.5-.8-.8-.2-.3-.3-.7-.3-1.3 0-.4.1-.7.2-1.1.1-.3.4-.6.6-.8.3-.2.6-.4.9-.5.4-.1.8-.2 1.3-.2s.8.1 1.2.2.6.3.9.5c-.1.2-.2.3-.2.5s-.1.4-.2.7h-.2c0-.1-.1-.3-.2-.4-.1-.2-.2-.3-.3-.4-.1-.1-.3-.2-.5-.3-.2-.1-.4-.1-.7-.1-.3 0-.5 0-.7.1-.2.1-.4.2-.6.4s-.3.3-.4.5c-.1.2-.1.5-.1.7 0 .4.1.8.3 1 .2.3.5.5.8.6.3.2.7.3 1 .5.4.1.7.3 1 .5.3.2.6.5.8.7.2.3.3.7.3 1.2 0 .4-.1.8-.2 1.2-.2.4-.4.7-.7 1-.3.3-.7.5-1.1.6-.4.2-.9.2-1.4.2-.6 0-1-.1-1.4-.2-.4-.2-.7-.3-.9-.5.1-.2.1-.4.2-.6s.1-.4.1-.6h.2c0-.1.1.1.3.3zm6.9-6.5c0-.6-.1-1.2-.1-1.8h1.4c0 .6-.1 1.2-.1 1.8v6c0 .6.1 1.2.1 1.7h-1.4c0-.6.1-1.2.1-1.7v-6zm5.8-1h-1.5c-.3 0-.5 0-.8.1-.3 0-.5 0-.7.1 0-.2.1-.3.1-.5 0-.1 0-.3-.1-.4h7.2c0 .2-.1.3-.1.5s0 .3.1.4c-.2 0-.4-.1-.7-.1-.3 0-.5 0-.8-.1h-1.5v7.1c0 .6.1 1.2.1 1.7h-1.4c0-.6.1-1.2.1-1.7V113c.1-.9.1-1.9 0-2.8zm7.8 4.2c-.2-.3-.4-.6-.6-1-.2-.4-.5-.7-.7-1.2-.2-.4-.5-.8-.7-1.2-.2-.4-.4-.7-.6-1s-.3-.5-.4-.6h1.6c.4.8.8 1.6 1.3 2.4.4.8.9 1.6 1.4 2.4.2-.3.4-.7.7-1.1.2-.4.5-.8.7-1.2s.5-.8.7-1.3l.6-1.2c.2 0 .4.1.6.1.1 0 .3 0 .6-.1-.5.7-.8 1.3-1.2 1.8s-.7 1-.9 1.5c-.3.5-.5.8-.7 1.2-.2.4-.4.7-.5 1v3.2c0 .3 0 .6.1.8h-1.4c.1-.5.1-1.1.1-1.7V115c-.4-.1-.5-.3-.7-.6zm10.1-2.3c.3-.6.6-1.1 1.1-1.6.5-.4 1-.7 1.7-1 .7-.2 1.3-.3 2.1-.3s1.5.1 2.1.3c.7.2 1.2.5 1.7 1 .5.4.8.9 1.1 1.6.3.6.4 1.3.4 2.1s-.1 1.5-.4 2.1c-.3.6-.6 1.1-1.1 1.6-.5.4-1 .7-1.7.9-.7.2-1.4.3-2.1.3-.7 0-1.5-.1-2.1-.3-.7-.2-1.2-.5-1.7-.9s-.8-.9-1.1-1.6-.4-1.3-.4-2.1.2-1.4.4-2.1zm8.4.1c-.2-.5-.5-1-.8-1.4-.4-.4-.7-.6-1.2-.8-.5-.2-1-.3-1.5-.3-.6 0-1 .1-1.5.3-.5.2-.9.5-1.2.8-.4.4-.6.8-.8 1.4-.2.5-.3 1.2-.3 2s.1 1.4.3 2c.2.5.5 1 .8 1.4.4.4.7.6 1.2.8.5.2 1 .3 1.5.3.6 0 1.1-.1 1.5-.3.5-.2.9-.5 1.2-.8.4-.4.6-.8.8-1.4.2-.5.3-1.2.3-2s-.1-1.4-.3-2zm3.6-1c0-.6 0-1.2-.1-1.8h5.1v.8c-.3 0-.6-.1-.9-.1-.4 0-.7 0-1.1-.1h-1.9v3.5h1.8c.6 0 1.2-.1 1.8-.1 0 .1-.1.3-.1.4s0 .3.1.4c-.2 0-.5-.1-.8-.1h-2.8v3c0 .6.1 1.2.1 1.7h-1.4c0-.6.1-1.2.1-1.7V113c.1-.6.1-1.2.1-1.8zm10.9 0c0-.6 0-1.2-.1-1.8h1.4c0 .6-.1 1.2-.1 1.8v7.1h1.9c.6 0 1.3-.1 2-.2 0 .2-.1.3-.1.4 0 .1 0 .2.1.4h-5.2c0-.6.1-1.2.1-1.7v-6zm6.6.9c.3-.6.6-1.1 1.1-1.6.5-.4 1-.7 1.7-1 .7-.2 1.3-.3 2.1-.3s1.5.1 2.1.3c.6.2 1.2.5 1.7 1 .5.4.8.9 1.1 1.6.3.6.4 1.3.4 2.1s-.1 1.5-.4 2.1c-.3.6-.6 1.1-1.1 1.6s-1 .7-1.7.9c-.7.2-1.4.3-2.1.3s-1.5-.1-2.1-.3c-.7-.2-1.2-.5-1.7-.9s-.8-.9-1.1-1.6c-.3-.6-.4-1.3-.4-2.1s.1-1.4.4-2.1zm8.4.1c-.2-.5-.5-1-.8-1.4-.4-.4-.7-.6-1.2-.8-.5-.2-1-.3-1.5-.3s-1 .1-1.5.3c-.5.2-.9.5-1.2.8-.4.4-.6.8-.8 1.4-.2.5-.3 1.2-.3 2s.1 1.4.3 2c.2.5.5 1 .8 1.4.4.4.7.6 1.2.8.5.2 1 .3 1.5.3s1.1-.1 1.5-.3c.5-.2.9-.5 1.2-.8.4-.4.6-.8.8-1.4.2-.5.3-1.2.3-2s-.1-1.4-.3-2zm8.1 3.2c-1.2-1.3-2.4-2.6-3.6-3.8v7.4h-1c0-.1 0-.3.1-.5 0-.3 0-.5.1-.9 0-.4 0-.7.1-1.1 0-.4 0-.8.1-1.2v-5.9h.2c.6.6 1.2 1.3 1.8 2s1.3 1.4 1.9 2.1c.7.7 1.2 1.3 1.8 1.9.6.6 1.1 1.1 1.5 1.6v-4.7c0-.9 0-1.8-.1-2.6.2 0 .4.1.5.1.1 0 .3 0 .5-.1 0 .2 0 .5-.1.9 0 .4 0 .8-.1 1.3 0 .5 0 .9-.1 1.4v6.2h-.2c-1.1-1.6-2.2-2.8-3.4-4.1zm6.3-4.2c0-.6 0-1.2-.1-1.8h4c.8 0 1.5.1 2.1.3.6.2 1.1.5 1.4.9.4.4.7.9.8 1.5.2.6.3 1.2.3 1.9 0 .9-.2 1.7-.5 2.3-.3.6-.7 1.1-1.2 1.5-.5.4-1 .7-1.7.8-.6.2-1.2.3-1.7.3h-3.6c0-.6.1-1.2.1-1.7V113c.2-.6.2-1.2.1-1.8zm1.3 7.2c.2 0 .5.1.8.1h1c.5 0 1-.1 1.5-.2s1-.4 1.4-.7c.4-.3.7-.8 1-1.4.3-.6.4-1.3.4-2.2 0-.8-.1-1.5-.3-2-.2-.5-.5-.9-.8-1.2-.4-.3-.8-.5-1.2-.6-.5-.1-1-.2-1.6-.2h-1.2c-.4 0-.7.1-1 .1 0 .5-.1.9-.1 1.4v3.9c0 1 0 2 .1 3zm9.2-6.3c.3-.6.6-1.1 1.1-1.6.5-.4 1-.7 1.7-1 .7-.2 1.3-.3 2.1-.3s1.5.1 2.1.3c.6.2 1.2.5 1.7 1 .5.4.8.9 1.1 1.6.3.6.4 1.3.4 2.1s-.1 1.5-.4 2.1c-.3.6-.6 1.1-1.1 1.6s-1 .7-1.7.9c-.7.2-1.4.3-2.1.3-.7 0-1.5-.1-2.1-.3-.7-.2-1.2-.5-1.7-.9s-.8-.9-1.1-1.6-.4-1.3-.4-2.1.2-1.4.4-2.1zm8.5.1c-.2-.5-.5-1-.8-1.4-.4-.4-.7-.6-1.2-.8-.5-.2-1-.3-1.5-.3s-1 .1-1.5.3c-.5.2-.9.5-1.2.8-.4.4-.6.8-.8 1.4-.2.5-.3 1.2-.3 2s.1 1.4.3 2c.2.5.5 1 .8 1.4.4.4.7.6 1.2.8.5.2 1 .3 1.5.3s1.1-.1 1.5-.3.9-.5 1.2-.8c.4-.4.6-.8.8-1.4.2-.5.3-1.2.3-2s-.1-1.4-.3-2zm8 3.2c-1.2-1.3-2.4-2.6-3.6-3.8v7.4h-1c0-.1 0-.3.1-.5 0-.3 0-.5.1-.9 0-.4 0-.7.1-1.1 0-.4 0-.8.1-1.2v-5.9h.2c.6.6 1.2 1.3 1.8 2s1.3 1.4 1.9 2.1c.7.7 1.2 1.3 1.8 1.9s1.1 1.1 1.5 1.6v-4.7c0-.9 0-1.8-.1-2.6.2 0 .4.1.5.1.1 0 .3 0 .5-.1 0 .2 0 .5-.1.9 0 .4 0 .8-.1 1.3 0 .5 0 .9-.1 1.4v6.2h-.2c-1-1.6-2.2-2.8-3.4-4.1z"/><path d="M148.2 132.4c.5-.7 1-1.5 1.6-2.2.5-.7.9-1.4 1.4-2 .4-.6.8-1.1 1-1.6.2.1.4.1.6.1s.3 0 .6-.1c0 .7-.1 1.6-.1 2.5v4.6h.9c.3 0 .5-.1.7-.1-.1.2-.1.4-.1.5s0 .3.1.5c-.2 0-.4-.1-.7-.1h-.9v2.1c0 .5 0 .8.1 1.1H152c0-.3.1-.6.1-1.1 0-.5.1-.9.1-1.3v-.7H147v-.3c.2-.4.7-1.1 1.2-1.9m3.7-4.1c-.2.3-.5.7-.9 1.2s-.7 1-1.1 1.6c-.4.5-.7 1.1-1.1 1.6-.3.5-.6.9-.8 1.2h3.9v-5.6zm-13 9.1c.3.1.6.2.9.2.6 0 1.1-.2 1.6-.5.4-.3.8-.8 1-1.3.3-.5.5-1.1.6-1.8.1-.7.2-1.3.2-2-.3.5-.6.8-1 1.1-.5.3-1 .4-1.7.4-1 0-1.8-.3-2.4-.9-.6-.6-.9-1.4-.9-2.5 0-.5.1-1 .3-1.4s.4-.8.7-1.1c.3-.3.7-.5 1.2-.7.5-.2 1-.3 1.6-.3.5 0 1 .1 1.4.3s.8.5 1.2.8c.4.4.6.9.8 1.5.2.6.3 1.4.3 2.2 0 .9-.1 1.8-.3 2.6s-.6 1.5-1 2.1c-.4.6-.9 1.1-1.6 1.4-.6.3-1.3.5-2.1.5-.3 0-.6 0-.8-.1-.2-.1-.4-.1-.6-.1 0-.1-.1-.3-.1-.5-.1-.2-.1-.3-.2-.5h.1c.3.3.5.5.8.6m3.6-9.5c-.4-.5-.9-.7-1.6-.7s-1.2.3-1.6.8c-.4.5-.6 1.3-.6 2.2 0 1 .2 1.6.6 2.1.4.4.9.6 1.5.6.4 0 .7-.1 1-.3s.6-.4.7-.7c.2-.3.4-.6.5-1 .1-.4.2-.8.2-1.2 0-.7-.3-1.3-.7-1.8m-14.4 5.1c.4-.6 1-1 1.9-1.3v-.1c-.2 0-.4-.1-.7-.3-.2-.1-.4-.3-.6-.5-.2-.2-.3-.4-.4-.7-.1-.3-.2-.5-.2-.9s.1-.7.2-1c.2-.3.4-.6.7-.8.3-.3.6-.5 1-.6s.8-.2 1.3-.2c.6 0 1 .1 1.4.2.4.1.7.3 1 .5.3.2.5.5.6.8s.2.6.2.9c0 .5-.2 1-.5 1.5s-.8.8-1.4 1v.1c.2 0 .4.1.7.2.3.1.6.3.8.5.3.2.5.5.7.8.2.4.3.8.3 1.3s-.1 1.1-.3 1.5c-.2.5-.5.8-.8 1.1-.4.3-.7.5-1.2.7-.5.2-.9.2-1.5.2s-1-.1-1.5-.2-.8-.3-1.2-.6c-.3-.3-.6-.6-.8-1-.2-.4-.3-.9-.3-1.4.1-.5.2-1.1.6-1.7m5-4.5c-.1-.3-.2-.5-.3-.7-.2-.2-.3-.4-.6-.5-.2-.1-.5-.2-.8-.2s-.6.1-.8.2c-.2.1-.4.3-.6.5-.2.2-.3.4-.3.7-.1.3-.1.5-.1.8s0 .5.1.8c.1.3.2.5.3.7.1.2.3.4.6.5.2.1.5.2.8.2s.6-.1.8-.2c.2-.1.4-.3.6-.5.2-.2.3-.4.3-.7.1-.3.1-.5.1-.8-.1-.3-.1-.5-.1-.8m.3 5.2c-.1-.3-.3-.6-.5-.9-.2-.3-.4-.5-.7-.6-.3-.1-.6-.2-.9-.2s-.7.1-.9.2c-.3.1-.5.3-.7.6s-.4.5-.5.9c-.1.4-.2.7-.2 1.1s.1.8.2 1.1c.1.4.3.6.5.9.2.3.4.5.7.6.3.1.6.2.9.2s.7-.1.9-.2c.3-.1.5-.3.7-.6s.4-.5.5-.9c.1-.4.2-.7.2-1.1s-.1-.8-.2-1.1m-12.9-4.9c-.1-.2-.3-.4-.5-.5v-.1c.7-.3 1.3-.5 2-.8.7-.3 1.3-.6 1.9-.9l.1.1c0 .7-.1 1.5-.1 2.2v7.2c0 .7.1 1.4.1 2.1h-1.6c.1-.7.1-1.4.1-2.1v-8.2l-2 1zm-11.5-1.5h-1.8c-.3 0-.6 0-.9.1-.3 0-.6.1-.8.1.1-.2.1-.4.1-.5 0-.1 0-.3-.1-.5.7 0 1.5 0 2.2.1h4.4c.7 0 1.4 0 2.2-.1-.1.2-.1.4-.1.5 0 .1 0 .3.1.5-.2 0-.5-.1-.8-.1-.3 0-.6 0-.9-.1h-1.8c0 1.1-.1 2.3-.1 3.5v5.1c0 .7.1 1.4.1 2.1h-1.6c0-.7.1-1.4.1-2.1v-5.1c-.2-1.2-.2-2.4-.3-3.5m-11.4 9.1c.2.2.3.4.6.5.2.2.5.3.8.4.3.1.6.2 1 .2s.7-.1 1-.2c.3-.1.6-.3.7-.5.2-.2.4-.5.5-.8.1-.3.2-.6.2-.9 0-.5-.1-.9-.4-1.2-.3-.3-.6-.5-1-.7-.4-.2-.8-.4-1.3-.5-.5-.2-.9-.4-1.3-.6-.4-.3-.7-.6-1-1-.3-.4-.4-.9-.4-1.6 0-.5.1-.9.3-1.3.2-.4.4-.7.7-1 .3-.3.7-.5 1.1-.6.5-.2.9-.2 1.5-.2.5 0 1 .1 1.4.2.4.1.7.3 1.1.6l-.3.6c-.1.2-.1.5-.2.8h-.2c-.1-.2-.1-.3-.2-.5s-.2-.4-.4-.5-.4-.3-.6-.4c-.2-.1-.5-.2-.8-.2s-.6 0-.9.2c-.3.1-.5.3-.7.4-.2.2-.4.4-.5.7-.1.3-.2.5-.2.8 0 .5.1.9.4 1.2s.6.5 1 .8c.4.2.8.4 1.3.5s.9.4 1.3.6c.4.2.7.5 1 .9.3.4.4.8.4 1.5 0 .5-.1 1-.3 1.5s-.5.8-.8 1.2-.8.6-1.3.8c-.5.2-1.1.3-1.8.3s-1.3-.1-1.7-.3c-.4-.2-.8-.4-1.1-.6.1-.3.2-.5.2-.7 0-.2.1-.5.1-.8h.2c.4-.1.5.2.6.4m-9.1-7.8c0-.7-.1-1.4-.1-2.1.5 0 1 0 1.5.1h3c.5 0 1 0 1.5-.1 0 .2-.1.3-.1.5s0 .3.1.5c-.4 0-.7 0-1-.1-.3 0-.6 0-.9-.1s-.7 0-1.1-.1H90v4.3h3.3c.3 0 .5 0 .8-.1 0 .2-.1.4-.1.5s0 .3.1.5c-.3 0-.6-.1-1-.1H90v4.9h2.5c.4 0 .8 0 1.2-.1.4 0 .7-.1.9-.1v1h-6c0-.7.1-1.4.1-2.1v-5.1c-.2-.8-.2-1.5-.2-2.2" fill="#d51727"/><path d="M80.9 133.4H39.4c-.4 0-.7-.3-.7-.6 0-.4.3-.6.7-.6h41.5c.4 0 .7.3.7.6s-.3.6-.7.6zm122.8 0h-41.5c-.4 0-.7-.3-.7-.6 0-.4.3-.6.7-.6h41.5c.4 0 .7.3.7.6s-.3.6-.7.6zm.2-91.2H39.3c-.4 0-.7-.3-.7-.6s.3-.6.7-.6h164.6c.4 0 .7.3.7.6s-.4.6-.7.6z" fill="#e10a17"/></svg>