<svg xmlns="http://www.w3.org/2000/svg" xmlns:xlink="http://www.w3.org/1999/xlink" width="153" height="52" viewBox="0 0 153 52"><title>Group</title><defs><path id="a" d="M.444.74h39.622v51.662H.444z"/><path id="c" d="M.444 52.402h152.411V.74H.444z"/></defs><g fill="none" fill-rule="evenodd"><g transform="translate(0 -.724)"><mask id="b" fill="#fff"><use xlink:href="#a"/></mask><path fill="#FFFFFE" d="M20.254 52.402l-6.793-3.69s-5.008-3.195-6.011-4.188C6.452 43.533.444 37.928.444 30.899V.738h39.622v30.161c0 7.029-6.01 12.634-7.01 13.625-1.001.993-6.004 4.188-6.004 4.188l-6.798 3.69z" mask="url(#b)"/></g><path fill="#204389" d="M1.649 13.666h37.214V1.376H1.649z"/><path fill="#FFFFFE" d="M38.862 13.666H1.648V31.5l.301 1.175.505 1.813.739 1.68.876 1.51 1.073 1.644.974 1.244 1.109 1.242 1.005 1.01 1.681 1.274 1.577 1.11 2.018 1.375 6.748 3.697 6.819-3.767 1.272-.837 1.143-.771 1.145-.807.702-.471.94-.803.776-.84.705-.771.739-.842.738-.973.673-.943.803-1.274.405-.777.473-.971.395-.974.512-1.743.297-2.218z"/><path fill="#D8232A" d="M14.342 13.666h11.826v9.738h12.623v7.789l-.297 1.719-.273.903-.435.876H26.168v12.288l-6.049 3.295-5.777-3.156V34.691H2.586l-.601-1.681-.337-1.175v-8.431h12.694z"/><path fill="#1A1919" d="M1.648 13.93h37.143v-.529H1.648z"/><g transform="translate(0 -.724)"><path fill="#1A1919" d="M2.001 2.453v28.19c0 2.844 1.1 7.323 6.341 12.513l.138.137c.907.9 5.537 3.885 5.584 3.915l6.19 3.388 6.212-3.401c.025-.017 4.657-3.002 5.56-3.903l.128-.127c5.252-5.183 6.355-9.67 6.355-12.522V2.453H2.001zM20.254 51.4l-6.55-3.586c-.216-.137-4.762-3.068-5.722-4.022l-.137-.135c-5.413-5.361-6.55-10.036-6.55-13.014V1.747h37.92v28.896c0 2.986-1.139 7.669-6.565 13.024l-.126.125c-.955.954-5.505 3.885-5.698 4.009L20.254 51.4z"/><path fill="#1A1919" d="M16.812 34.408l.695-.324s.15-.04.173.046c.024.078.09.275.105.51.014.24.16.54.42.677.658.356 1.74.255 1.897.208.16.06 1.256.148 1.93-.172.265-.123.43-.42.455-.657.026-.238.105-.429.132-.506.027-.082.177-.036.177-.036l.677.363-.073-.719s.006-.153.096-.153c.084 0 .29-.004.52.062.23.054.56.01.776-.192.535-.514.777-1.574.778-1.743.105-.131.53-1.147.434-1.89a.853.853 0 0 0-.48-.631c-.22-.101-.38-.232-.444-.284-.066-.054.022-.181.022-.181l.553-.529-.762-.146s-.148-.057-.122-.137c.031-.077.091-.274.222-.473a.857.857 0 0 0 .06-.793c-.329-.668-1.276-1.225-1.439-1.278-.095-.139-.944-.856-1.69-.993a.886.886 0 0 0-.764.263c-.165.178-.34.288-.412.333-.069.041-.165-.078-.165-.078l-.339-.694-.37.671s-.102.118-.17.068c-.065-.048-.235-.166-.383-.354-.152-.182-.45-.34-.744-.302-.734.102-1.55.818-1.65.952-.164.047-1.104.617-1.462 1.272a.856.856 0 0 0 .017.797c.117.21.167.408.19.491.022.076-.122.133-.122.133l-.752.101.526.56s.077.132.008.179c-.068.051-.23.173-.454.262-.22.084-.463.322-.515.608-.132.733.295 1.728.391 1.87-.008.167.25 1.235.76 1.78.201.216.53.277.765.228.232-.046.44-.029.518-.029.087.004.095.159.095.159l-.08.701z"/><path fill="#FFFFFE" d="M20.244 31.911s-.26-.01-.326.228c-.07.236.105.454-.066.576-.174.125-.109.232-.345.163-.24-.073-.324-.187-.395-.371-.082-.183-.234-.313-.445-.448-.196-.16-.367-.265-.56-.287-.199-.013-.324-.063-.472-.27-.136-.207-.099-.054 0-.338.098-.273.363-.129.57-.268.206-.144.137-.42.137-.42s-.167-.301-.412-.293c-.25.008-.394.24-.569.114-.17-.126-.254-.03-.262-.281-.009-.246.082-.361.232-.489.146-.125.223-.313.286-.559.095-.235.138-.428.097-.62-.046-.193-.034-.328.116-.526.155-.197.024-.116.32-.112.292.01.234.31.434.46.198.152.433.003.433.003s.251-.197.166-.435c-.08-.234-.352-.301-.287-.505.071-.198-.047-.25.184-.333.241-.083.371-.033.541.061.166.106.368.12.623.106.247.014.454 0 .62-.106a.562.562 0 0 1 .538-.046c.234.085.118-.015.2.268.081.283-.218.321-.304.555-.082.238.136.423.136.423s.273.198.47.048c.201-.155.18-.43.393-.43.212.003.225-.124.376.078.15.194.146.335.102.53-.043.186.001.384.098.62.06.245.137.428.287.558.147.131.22.246.215.495-.008.248.05.105-.197.274-.239.167-.369-.111-.617-.117-.25-.006-.389.259-.389.259s-.067.312.14.453c.204.143.462.038.524.24.063.203.187.173.046.376-.137.204-.278.249-.474.265-.193.015-.37.12-.56.283-.213.134-.367.265-.444.448-.076.18-.165.285-.405.357-.238.068-.084.082-.32-.099-.235-.179-.015-.39-.08-.628-.07-.241-.355-.26-.355-.26"/><path fill="#F4B660" d="M20.31 16.557l-.502-.088.084.473-.507-.052v.722l.507-.134.166.24.1.097v.239s-.214.016-.266.113c-.054.103 0 0 0 0s-2.256-.201-4.066 1.143l-.118.353s1.192-.857 3.982-.975l.015.202s-2.586.034-4.131 1.09l-.05.388s1.442-.891 4.15-.939l.134.017.136.1.046.133-.234.104-.32.046-.235-.065.016.469.085.504.049.268v.285l.239-.2.264-.049.12.033s0 .116.016.284c.02.169-.066.452-.066.452l-.284.203s-.405.118-.573.035a.783.783 0 0 1-.416-.708c0-.384.095-.15.095-.15l.166.053h.124l-.018-.238-.106-.386-.195-.172-.172.172s-.081-.79-.753-.755c0 0-.22.675.1 1.226l-.302.017-.083.285.234.418.185.121.133-.29.018-.165s.069-.037.134.051c.069.082.253.775.015.94-.236.167-.383.215-.59.133-.197-.082-1.053-.337-.917-.89l.066-.148.216.047.136.051.015-.184s-.236-.89-.754-.574l-.052-.455-.084-.214-.452.197-.138.138 1.75 3.56s1.06-.621 2.888-.621c1.83 0 2.889.621 2.889.621l1.744-3.56-.132-.138-.454-.197-.083.214-.047.455c-.526-.316-.757.574-.757.574l.013.184.134-.051.22-.047.068.148c.132.553-.727.808-.925.89-.204.082-.354.034-.59-.133-.233-.165-.047-.858.016-.94.07-.088.137-.051.137-.051l.018.165.134.29.184-.121.234-.418-.085-.285-.303-.017c.319-.551.1-1.226.1-1.226-.668-.035-.755.755-.755.755l-.165-.172-.203.172-.1.386-.018.238h.118l.17-.053s.099-.234.099.15a.786.786 0 0 1-.42.708c-.166.083-.57-.035-.57-.035l-.282-.203s-.087-.283-.073-.452c.023-.168.023-.284.023-.284l.113-.033.268.049.237.2v-.285l.049-.268.087-.504.015-.469-.236.065-.318-.046-.238-.104.053-.133.135-.1.134-.017c2.704.048 4.148.939 4.148.939l-.05-.388c-1.547-1.056-4.131-1.09-4.131-1.09l.015-.202c2.789.118 3.982.975 3.982.975l-.118-.353c-1.814-1.344-4.067-1.143-4.067-1.143s.052.103 0 0c-.048-.097-.265-.113-.265-.113v-.239l.1-.097.165-.24.505.134v-.722l-.505.052.087-.473-.504.088zm5.371 16.502l1.466 1.698-1.95-.955zm.136-6.098l4.871-1.554-4.488 2.499zm.68 2.435l5.095.468-5.104.547zm-.23 2.331l4.421 2.575-4.805-1.59zm.073-3.404l1.676-.131-1.544.79zm.132 2.439l1.595.776-1.733-.091zm-11.895 2.092L9.71 34.408l4.485-2.498zm-.675-2.431l-5.095-.466 5.105-.552zm.23-2.333L9.71 25.517l4.804 1.59zm-.07 3.399l-1.677.135 1.542-.788zm-.135-2.435l-1.592-.771 1.731.088zm9.021 6.489l1.562 4.868-2.501-4.483zm-2.43.682l-.466 5.096-.549-5.108zm-2.333-.231l-2.574 4.417 1.591-4.8zm3.401.068l.137 1.682-.791-1.546zm-2.435.136l-.774 1.59.093-1.734zm-3.188-1.551l-1.732 1.003 1.175-1.578zm-.852-.891l-2.004.732 1.642-1.326zm1.773 1.659l-1.6 1.41.96-1.952zm8.083-1.334l1.003 1.734-1.576-1.175zm-.888.853l.733 2.008-1.334-1.642zm.331-9.851l1.731-1-1.174 1.579zm.847.895l2.012-.734-1.645 1.33zm-1.766-1.66l1.594-1.409-.954 1.95zm-8.146 1.392l-1.001-1.731 1.583 1.173zm.894-.85l-.734-2.006 1.329 1.644zm-1.573 1.888l-1.498-1.713 1.949.957zm5.578 1.514l-.489.97-.924.121.691.668-.22 1.061.942-.606.937.606-.216-1.061.69-.668-.928-.121z"/><path fill="#1A1919" d="M14.607 24.392H1.649v-.529h12.429v-9.474h.529v10.003zm24.184 0H25.903V14.389h.53v9.474h12.358v.529zm-12.358 23.31h-.53V35.15h11.884v.529H26.433v12.023zm-11.826.139h-.529V35.679H2.724v-.529h11.883v12.691z"/><path fill="#F4B660" d="M10.61 3.105l-.687.712-.049 6.552s.552.662 2.43.809c1.877.148 5.227-.441 5.227-.441l1.668.147.466.196-.049.418.062.539.307.393.846-.025.294-.368-.012-.613-.024-.295.712-.27.564-.074 1.717.025 1.644.319 2.112.098s1.3-.06 1.864-.22c.564-.16.958-.392.958-.392l.22-.271-.025-6.355-.736-.884-.073 1.521.098 4.688-.025.588-.785.319-3.386.025-2.528-.172-1.35.147-.98.394-.738.514-1.276-.908-1.914-.239-3.95.338-1.62-.05-1.03-.416.048-6.749z"/><path fill="#1A1919" d="M20.326 11.358a.21.21 0 0 1-.127-.043c-.367-.278-.165-.412-.983-.822-.521-.262-1.371-.346-2.005-.346-.536 0-1.146.042-1.815.123-.884.108-1.681.162-2.371.162-1.76 0-2.288-.349-2.341-.389l-.157-.075a.208.208 0 0 1-.116-.188l.033-6.677a.21.21 0 0 1 .344-.159c.244.205.389.338.427.393.098.074.87.486 2.154.486.593 0 1.224-.087 1.874-.257a5.89 5.89 0 0 1 1.483-.19c2.103 0 3.655 1.082 3.719 1.128a.21.21 0 0 1 .089.171v6.473a.209.209 0 0 1-.208.21"/><path fill="#1A1919" d="M20.437 11.358a.211.211 0 0 1-.21-.21V4.675a.21.21 0 0 1 .09-.171c.065-.046 1.617-1.128 3.718-1.128.505 0 1.003.065 1.483.19.651.17 1.282.257 1.875.257 1.284 0 2.056-.412 2.18-.515.012-.026.156-.159.401-.364a.206.206 0 0 1 .222-.03c.074.034.12.107.122.189l.033 6.677c0 .08-.044.153-.115.188l-.187.094c-.025.021-.553.37-2.312.37-.69 0-1.489-.054-2.37-.162a15.35 15.35 0 0 0-1.815-.123c-.636 0-1.704.165-2.076.374-.725.409-.525.5-.912.794a.214.214 0 0 1-.127.043m-14.479-.387c-.183 0-.298-.147-.329-.294-.028-.105-.147-.423-.342-.534a.603.603 0 0 1-.299-.607.284.284 0 0 1-.005-.08c.017-.131.115-.26.301-.392.183-.133.327-.462.362-.567a.379.379 0 0 1 .621-.138c.055.048.1.095.141.138.11.115.147.154.29.154l.677.001 1.415-.001h.002a.208.208 0 0 1 .21.209l-.012 1.481c-.002.115-.08.221-.21.205-.002 0-1.856-.013-2.084-.001-.129.007-.196.063-.387.24l-.05.048c-.1.093-.2.138-.3.138m.001-3.268c-.185 0-.299-.148-.331-.295-.027-.105-.147-.424-.342-.535a.608.608 0 0 1-.299-.604.319.319 0 0 1-.005-.079c.016-.132.114-.261.301-.395.183-.132.328-.463.363-.568a.379.379 0 0 1 .62-.138c.055.049.1.096.141.139.11.116.146.154.289.154l.678.001 1.417-.001h.001c.054 0 .109.022.148.061a.215.215 0 0 1 .061.148L8.99 7.07a.209.209 0 0 1-.209.205H8.78c0 .001-1.862-.01-2.087-.001-.128.007-.195.066-.391.251l-.043.04c-.102.093-.199.138-.299.138m28.843 3.268c-.102 0-.199-.045-.299-.138l-.052-.048c-.19-.177-.257-.233-.384-.239-.236-.014-2.086 0-2.086 0h-.002a.209.209 0 0 1-.209-.205l-.01-1.481a.209.209 0 0 1 .208-.209l1.417.001.678-.001c.143 0 .18-.039.29-.154.04-.043.085-.09.14-.138a.379.379 0 0 1 .621.136c.04.115.18.436.364.57.184.131.282.26.3.391a.251.251 0 0 1-.006.08.6.6 0 0 1-.299.607c-.196.111-.317.437-.344.541-.029.14-.143.287-.327.287m-.002-3.268c-.1 0-.198-.045-.298-.137l-.044-.041c-.194-.185-.263-.244-.393-.251-.219-.009-2.085.002-2.085.001a.208.208 0 0 1-.209-.205l-.012-1.479c0-.055.022-.109.06-.148a.213.213 0 0 1 .15-.061l1.416.001.678-.001c.144 0 .181-.038.29-.154.04-.043.085-.09.138-.137a.378.378 0 0 1 .622.133c.04.116.181.44.364.571.186.134.284.263.3.395a.2.2 0 0 1-.006.079.604.604 0 0 1-.298.604c-.195.111-.313.43-.344.543-.029.139-.143.287-.329.287"/><path fill="#1A1919" d="M20.898 13.481c-.238 0-.414-.024-.414-.024l-.23.001a2.803 2.803 0 0 1-.39.023c-1.137 0-1.346-.521-1.37-.831a.778.778 0 0 1 .054-.349l-9.746.172c-.067.013-.111-.021-.15-.06a.208.208 0 0 1-.063-.15l.045-7.567a.213.213 0 0 1 .146-.183c-.002 0 .117-.055.316-.29.297-.348.528-.493.546-.5a.214.214 0 0 1 .192.034.208.208 0 0 1 .08.176l-.01.186-.02 6.201c.137.139.773.822 2.834.822.777 0 1.888-.075 2.884-.224a14.983 14.983 0 0 1 2.274-.204c1.597 0 1.885.251 1.954.351a.241.241 0 0 1 .025.231l-.07.174c-.03.054-.153.255.013.608.097.207.315.265.475.281.01-.003.02-.003.029-.003h.172c.187-.015.395-.076.492-.278.165-.353.04-.554.035-.563l-.094-.219a.244.244 0 0 1 .026-.231c.067-.1.338-.365 1.936-.365.642 0 1.406.069 2.274.204.994.148 1.894.224 2.67.224 2.05 0 2.863-.664 3.004-.81l-.03-6.385a.208.208 0 0 1 .083-.176.213.213 0 0 1 .192-.034c.018.007.308.152.604.5.205.241.324.293.325.293.072.031.13.101.136.18l.016.182.03 7.385a.21.21 0 0 1-.062.15c-.041.039-.104.076-.151.06l-9.745-.172c.04.101.064.218.054.349-.024.31-.233.831-1.371.831"/><path fill="#FFFFFE" d="M19.418 10.257c.072.022.216.113.863.472V4.787c-.515-.22-1.862-.994-3.555-.994-.468 0-.932.06-1.377.176a7.824 7.824 0 0 1-1.981.271c-1.5 0-2.518-.528-2.612-.663l-.013-.014-.031 6.22.07.035c.03.019.629.326 2.242.326.675 0 1.454-.053 2.32-.158 1.924-.233 3.342-.138 4.074.271"/><path fill="#F4B660" d="M5.25 9.498a.285.285 0 0 1-.004.077c-.003.022-.022.155.098.223.336.19.504.594.567.785l.017-.014c.224-.209.4-.374.716-.387a87.058 87.058 0 0 1 1.955-.002l.009-.537-.002-.626-1.192.001-.75-.001c-.35-.002-.508-.167-.646-.312a1.738 1.738 0 0 0-.096-.097c-.067.168-.246.564-.542.777a.656.656 0 0 0-.13.113m0-3.267a.292.292 0 0 1-.004.078c-.003.021-.022.152.099.22.336.192.505.597.567.787l.005-.005c.227-.215.407-.384.725-.401.205-.007 1.458-.002 2.004-.001l.008-.535v-.626l-1.24.001-.75-.001c-.351 0-.51-.166-.648-.313-.03-.03-.06-.063-.096-.096-.065.167-.244.567-.54.778a.62.62 0 0 0-.13.114"/><path fill="#676867" d="M18.856 6.194c-.884-.4-1.983-.899-3.65-.462-1.037.272-2.418.444-3.18.115l.167-.384c.547.237 1.689.184 2.908-.136 1.809-.476 3.033.08 3.926.487l-.171.38zm0 1.747c-.884-.4-1.983-.899-3.65-.463-1.037.272-2.418.446-3.18.117l.167-.384c.547.236 1.689.183 2.908-.136 1.809-.477 3.033.08 3.926.486l-.171.38zm0 1.465c-.884-.401-1.983-.899-3.65-.464-1.037.274-2.418.445-3.18.117l.167-.383c.547.236 1.689.184 2.908-.137 1.809-.476 3.033.081 3.926.487l-.171.38z"/><path fill="#FFFFFE" d="M20.5 4.787v5.942c.626-.36.771-.449.843-.472.764-.415 2.165-.502 4.073-.271.867.106 1.648.158 2.321.158 1.614 0 2.19-.403 2.195-.407l.096-.048-.03-6.221a.148.148 0 0 0-.018.019c-.089.128-1.089.754-2.587.754a7.875 7.875 0 0 1-1.98-.271 5.507 5.507 0 0 0-1.378-.177c-1.872-.004-3.536.994-3.536.994"/><path fill="#F4B660" d="M33.4 10.175c.347 0 .637.002.72.007.314.012.49.178.715.387l.016.015c.066-.197.234-.597.568-.787.128-.073.097-.22.097-.222a.25.25 0 0 1-.003-.077.698.698 0 0 0-.13-.112c-.298-.215-.48-.616-.543-.783l-.095.102c-.14.145-.296.31-.648.312l-.748.001-1.19-.001.01 1.164c.314-.002.758-.006 1.23-.006m0-3.269c.347 0 .634.002.718.004.322.016.5.186.728.401l.005.005c.067-.198.235-.598.568-.788.119-.067.102-.198.097-.223a.224.224 0 0 1-.001-.073.656.656 0 0 0-.133-.116c-.296-.212-.476-.614-.54-.781l-.095.1c-.14.147-.296.312-.651.312l-.746.002-1.227-.002.009 1.162c.315-.001.795-.003 1.268-.003"/><path fill="#FFFFFE" d="M20.51 13.041c.035.002.187.022.388.022.343 0 .924-.057.953-.445.017-.213-.171-.367-.173-.368a.212.212 0 0 1-.067-.236.213.213 0 0 1 .2-.137l10.035.175-.033-7.21c-.088-.059-.31-.163-.466-.348a1.252 1.252 0 0 0-.3-.236l.02 6.134a.21.21 0 0 1-.028.107c-.054.093-.597.904-3.215.904-.797 0-1.717-.077-2.733-.228-.848-.133-1.591-.2-2.212-.2-1.003 0-1.44.175-1.604.273v.005c.072.089.18.428-.02.852-.143.306-.455.482-.855.482-.438 0-.75-.176-.894-.482-.183-.389-.107-.707-.02-.858-.16-.095-.596-.272-1.603-.272-.62 0-1.364.067-2.211.199a18.788 18.788 0 0 1-2.734.229c-2.617 0-3.24-.811-3.294-.904a.21.21 0 0 1-.03-.107l.02-6.134c-.095.059-.135.137-.22.236-.156.185-.398.289-.488.348l-.005.07-.03 7.14 10.059-.175.004-.001a.209.209 0 0 1 .129.374s-.19.157-.173.368c.03.388.61.445.954.445.2 0 .352-.02.358-.02l.289-.002z"/><path fill="#676867" d="M21.907 6.194l-.174-.38c.895-.407 2.116-.961 3.927-.487 1.22.32 2.361.373 2.909.136l.166.384c-.761.329-2.142.157-3.18-.115-1.666-.437-2.764.062-3.648.462m0 1.747l-.174-.38c.895-.406 2.116-.961 3.927-.486 1.22.319 2.361.372 2.909.136l.166.384c-.761.329-2.142.155-3.18-.117-1.666-.436-2.764.063-3.648.463m0 1.465l-.174-.38c.895-.406 2.116-.962 3.927-.487 1.22.321 2.361.373 2.909.137l.166.383c-.761.329-2.142.157-3.18-.117-1.666-.435-2.764.063-3.648.464"/><path fill="#1A1919" d="M9.91 4.1l-.218-.197.81-.896.218.197zm20.91 0l-.809-.896.218-.197.809.896z"/><path fill="#D8232A" d="M17.856 26.665s.423.166.536.134c.12-.033.17-.221.17-.221l.016-.203s.087-.131.168-.179c.085-.053.237-.105.334-.119.103-.016.137 0 .222-.067.083-.07.269-.603-.101-.875-.37-.271-.656-.438-.922-.271-.272.172-.557.523-.622.59-.067.068-.218.486-.304.486-.017.083-.561.182-.642.229-.08.053-.487.25-.712.474-.225.227-.123.541.058.965.174.42.74.36.825.295.084-.069.076-.104.116-.197.036-.096.12-.232.187-.302a.644.644 0 0 1 .219-.124l.202.026s.188-.003.25-.111c.058-.11 0-.53 0-.53m4.728.071s-.029.449.038.551c.073.104.265.091.265.091l.201-.046s.153.041.23.104c.075.062.172.188.22.281.046.091.041.13.136.189.09.056.668.069.806-.367.145-.432.22-.755-.027-.957-.245-.206-.675-.367-.762-.413-.088-.038-.537-.054-.569-.135-.084.014-.348-.472-.42-.534-.076-.063-.395-.387-.683-.531-.285-.147-.557.05-.907.347-.35.299-.12.815-.03.873.098.061.127.044.229.054.1.006.262.042.349.084.093.044.188.169.188.169l.034.2s.066.175.188.201c.125.02.514-.161.514-.161m-6.24 4.368s.29-.352.296-.476c.004-.12-.158-.223-.158-.223l-.186-.078s-.1-.122-.125-.216a1.214 1.214 0 0 1-.007-.356c.014-.1.042-.131.005-.231-.039-.098-.493-.442-.864-.171-.367.266-.614.486-.54.793.075.31.325.69.367.773.041.082.397.359.372.437.07.042-.002.591.017.682.023.093.09.542.231.824.144.278.474.284.93.246.455-.045.572-.601.535-.699-.036-.099-.073-.104-.152-.166a1.132 1.132 0 0 1-.226-.276c-.047-.084-.05-.246-.05-.246l.087-.181s.054-.184-.029-.274c-.083-.091-.504-.162-.504-.162m3.81 2.762s-.245-.38-.357-.42c-.116-.045-.262.077-.262.077l-.136.153s-.146.057-.244.048a.957.957 0 0 1-.339-.1c-.09-.047-.109-.076-.218-.076-.106.008-.573.336-.427.768.133.435.27.737.585.759.317.022.752-.094.85-.11.094-.015.46-.267.526-.214.065-.059.567.182.66.188.09.009.541.087.855.037.311-.048.413-.363.518-.806.103-.446-.39-.73-.496-.726-.107.002-.124.037-.213.088a1.083 1.083 0 0 1-.327.133c-.099.02-.248-.026-.248-.026l-.145-.143s-.16-.106-.268-.053c-.114.049-.315.423-.315.423m3.859-2.65s-.44.107-.513.207c-.077.098-.007.275-.007.275l.105.171s.01.16-.027.251a1.358 1.358 0 0 1-.202.289c-.074.074-.113.079-.136.186-.031.102.137.645.593.645.454 0 .787-.029.907-.326.118-.291.137-.75.157-.841.009-.092-.11-.524-.045-.572-.031-.078.347-.473.384-.561.034-.089.249-.492.301-.8.045-.314-.218-.513-.611-.747-.393-.234-.812.147-.842.247-.03.104 0 .129.026.228.023.101.035.259.02.354a.662.662 0 0 1-.105.226l-.18.093s-.148.127-.134.246c.017.117.309.429.309.429m-6.344-7.611c-.06-.152.092-.359.346-.46.256-.102.509-.061.571.087.06.154-.095.354-.344.459-.261.105-.512.069-.573-.086m2.151-.965c0-.162.223-.293.496-.293.271 0 .497.131.497.293 0 .162-.226.294-.497.294-.273 0-.495-.132-.495-.294m1.763.487c.074-.143.332-.166.574-.044.245.119.388.337.317.483-.072.144-.328.165-.572.046-.245-.125-.389-.339-.319-.485"/><path fill="#1A1919" d="M71.704 2.451v8.443l-6.255-8.443h-2.732V15.49h2.692V6.766l6.474 8.724h2.512V2.451zm36.609 19.802v8.444l-6.255-8.444h-2.732v13.039h2.692v-8.723l6.474 8.723h2.512V22.253z"/><mask id="d" fill="#fff"><use xlink:href="#c"/></mask><path fill="#1A1919" mask="url(#d)" d="M76.671 15.489h2.715V2.45h-2.715zM90.674 2.468l-3.649 9.347-3.562-9.347h-2.968l5.341 13.12h2.02l5.584-13.12zm34.253 13.021h2.71V2.45h-2.71zm-7.2-9.813c0-.752.754-1.188 1.723-1.188 1.07 0 2.018.355 3.128.95V3.1c-.751-.431-1.883-.789-3.265-.789-2.871 0-4.433 1.742-4.433 3.72 0 1.009.338 1.744.831 2.316 1.583 1.8 4.749 2.097 4.749 3.818 0 .991-.924 1.297-1.879 1.297-1.142 0-2.771-.594-3.676-1.163v2.537c.93.518 2.22.852 3.799.852 2.677 0 4.625-1.484 4.625-3.858 0-4.095-5.602-3.898-5.602-6.154m20.771-1.011h-3.237V15.49h-2.734V4.665h-3.543V2.45h10.128zM55.402 35.492c-4.186 0-6.727-2.759-6.727-6.572 0-3.918 2.781-6.806 6.727-6.806 4.231 0 6.73 2.876 6.73 6.647 0 3.79-2.735 6.731-6.73 6.731m0-11.161c-2.258 0-3.9 1.642-3.9 4.491 0 2.849 1.642 4.491 3.9 4.491 2.217 0 3.86-1.642 3.86-4.491 0-2.808-1.599-4.491-3.86-4.491m77.369 11.161c-4.187 0-6.727-2.759-6.727-6.572 0-3.918 2.781-6.806 6.727-6.806 4.23 0 6.729 2.876 6.729 6.647 0 3.79-2.735 6.731-6.729 6.731m0-11.161c-2.258 0-3.901 1.642-3.901 4.491 0 2.849 1.643 4.491 3.901 4.491 2.217 0 3.859-1.642 3.859-4.491 0-2.808-1.598-4.491-3.859-4.491M90.922 35.492c-4.186 0-6.727-2.759-6.727-6.572 0-3.918 2.781-6.806 6.727-6.806 4.231 0 6.729 2.876 6.729 6.647 0 3.79-2.734 6.731-6.729 6.731m0-11.161c-2.258 0-3.901 1.642-3.901 4.491 0 2.849 1.643 4.491 3.901 4.491 2.217 0 3.859-1.642 3.859-4.491 0-2.808-1.598-4.491-3.859-4.491M76.671 35.292V22.253h2.691v10.804h4.593v2.235zm73.494-13.039v8.444l-6.255-8.444h-2.732v13.039h2.692v-8.723l6.474 8.723h2.512V22.253zm-32.789 13.039h-4.094V22.253h4.332c4.649 0 7.266 2.513 7.266 6.41 0 4.016-2.994 6.629-7.504 6.629m.063-10.784h-1.447v8.549h1.484c3.226 0 4.494-2.039 4.494-4.313 0-2.573-1.541-4.236-4.531-4.236m-9.3-19.804c1.263 0 2.001.773 2.001 1.781 0 1.084-.738 1.887-2.001 1.887h-1.377V4.704h1.377zm2.868 10.786h2.998l-3.328-5.654c1.409-.723 2.153-1.971 2.153-3.467 0-2.407-1.292-3.918-4.75-3.918h-4.03V15.49h2.712v-4.981h1.369l2.876 4.981zm37.262-13.04l-2.709 5.556-2.752-5.556h-2.989l4.277 7.876v5.163h2.713v-5.124l4.287-7.915zm-90.498 0v7.893c0 2.205-1.195 3.058-2.927 3.058s-2.927-.853-2.927-3.058V2.45h-2.686v8.073c0 3.83 2.382 5.15 5.613 5.15 3.231 0 5.613-1.32 5.613-5.15V2.45h-2.686zm36.773 13.04V2.451h7.554l-.711 2.214h-4.138v3.047h4.159v2.237h-4.159v3.326h4.83v2.215zM70.53 27.577h-4.105V24.47h4.172l.694-2.217h-7.58v13.039h2.714v-5.5h4.105z"/></g></g></svg>